<?xml version="1.0" encoding="utf-8"?>
<svg viewBox="0 0 847 270" fill="none" xmlns="http://www.w3.org/2000/svg">
  <defs>
    <clipPath id="a">
      <path fill="#fff" transform="translate(357.143 34.353)" d="M0 0h36.982v39.941H0z" />
    </clipPath>
  </defs>
  <path fill-rule="evenodd" clip-rule="evenodd"
    d="M706.864 101.395h.04a1.248 1.248 0 0 1 1.252 1.246 1.252 1.252 0 0 1-1.248 1.254h-.093a1.249 1.249 0 1 1 .004-2.5h.045Zm-5.028 1.246a1.25 1.25 0 0 1-1.252 1.249h-.089c-.69 0-1.249-.56-1.248-1.251a1.253 1.253 0 0 1 1.252-1.249h.089c.691.001 1.25.561 1.248 1.251Zm-6.319-.004a1.253 1.253 0 0 1-1.253 1.249h-.089a1.25 1.25 0 0 1 .005-2.5h.089c.69 0 1.249.56 1.248 1.251Zm-6.32-.005a1.252 1.252 0 0 1-1.252 1.249h-.089a1.249 1.249 0 1 1 .004-2.5h.089c.69 0 1.249.56 1.248 1.251Zm-6.32-.005a1.251 1.251 0 0 1-1.252 1.249h-.044c-.691 0-1.249-.56-1.248-1.251a1.252 1.252 0 0 1 1.252-1.249h.044a1.249 1.249 0 0 1 1.248 1.251Zm28.871-.943a1.25 1.25 0 0 1 .464-1.706l.069-.04a1.25 1.25 0 1 1 1.257 2.16l-.084.049a1.25 1.25 0 0 1-1.706-.463Zm4.872-3.924a1.25 1.25 0 0 1-.449-1.71l.04-.068a1.25 1.25 0 1 1 2.168 1.243l-.049.085a1.25 1.25 0 0 1-1.71.45Zm2.258-5.832a1.249 1.249 0 0 1-1.246-1.254v-.042c0-.06.005-.12.013-.178a1.306 1.306 0 0 1-.013-.178V90.224a1.252 1.252 0 0 1 1.255-1.247c.69.002 1.248.563 1.245 1.254v.042c0 .06-.004.12-.012.178.008.058.012.118.012.178V90.681a1.25 1.25 0 0 1-1.254 1.247Zm.968-6.54a1.249 1.249 0 0 1-.462-1.705l.049-.085a1.25 1.25 0 1 1 2.159 1.259l-.04.069a1.25 1.25 0 0 1-1.706.463Zm3.924-4.868a1.25 1.25 0 0 1 .451-1.71l.084-.048a1.25 1.25 0 1 1 1.243 2.168l-.069.04a1.249 1.249 0 0 1-1.709-.45Zm5.83-2.255a1.251 1.251 0 0 1 1.246-1.255h.097c.691 0 1.25.56 1.249 1.25a1.252 1.252 0 0 1-1.251 1.25h-.088a1.248 1.248 0 0 1-1.253-1.245Zm8.031-1.255h.095c.691 0 1.25.56 1.249 1.25a1.252 1.252 0 0 1-1.251 1.25h-.096a1.25 1.25 0 0 1 .003-2.5Zm6.783 0h.095a1.251 1.251 0 0 1-.002 2.5h-.096a1.251 1.251 0 0 1 .003-2.5Zm6.783 0h.096a1.251 1.251 0 0 1-.003 2.5h-.095c-.691 0-1.25-.56-1.249-1.25.001-.69.561-1.25 1.251-1.25Zm6.783 0h.096a1.25 1.25 0 1 1-.003 2.5h-.095c-.691 0-1.25-.56-1.249-1.25.001-.69.561-1.25 1.251-1.25Zm6.783 0h.096a1.25 1.25 0 1 1-.003 2.5h-.095a1.249 1.249 0 1 1 .002-2.5Zm6.784 0h.047l-.002 2.5h-.048a1.25 1.25 0 1 1 .003-2.5Z"
    style="fill: rgb(96, 96, 96);" />
  <path fill-rule="evenodd" clip-rule="evenodd"
    d="M706.788 184.039h.04a1.25 1.25 0 0 1 .003 2.5h-.094a1.249 1.249 0 1 1 .007-2.5h.044Zm-5.031 1.242a1.251 1.251 0 0 1-1.253 1.248h-.089a1.248 1.248 0 0 1-1.247-1.252 1.252 1.252 0 0 1 1.253-1.248h.089a1.248 1.248 0 0 1 1.247 1.252Zm-6.322-.01a1.252 1.252 0 0 1-1.254 1.248h-.089a1.247 1.247 0 0 1-1.246-1.252 1.251 1.251 0 0 1 1.253-1.248h.089a1.25 1.25 0 0 1 1.247 1.252Zm-6.323-.01a1.25 1.25 0 0 1-1.253 1.248h-.089a1.248 1.248 0 0 1-1.247-1.252 1.252 1.252 0 0 1 1.253-1.248h.09c.69.001 1.248.562 1.246 1.252Zm-6.322-.01a1.251 1.251 0 0 1-1.253 1.248h-.045a1.249 1.249 0 1 1 .007-2.5h.044c.69.001 1.249.562 1.247 1.252Zm28.879-.917a1.251 1.251 0 0 1 .466-1.706l.069-.039a1.248 1.248 0 1 1 1.255 2.16l-.085.049c-.6.343-1.363.135-1.705-.464Zm4.874-3.916a1.25 1.25 0 0 1-.446-1.71l.04-.068a1.25 1.25 0 1 1 2.166 1.246l-.049.084a1.25 1.25 0 0 1-1.711.448Zm2.266-5.825a1.248 1.248 0 0 1-1.243-1.256v-.088a1.25 1.25 0 0 1 2.5.002v.097a1.252 1.252 0 0 1-1.257 1.245Zm.017-6.917c-.691 0-1.249-.56-1.248-1.25v-.098a1.25 1.25 0 1 1 2.5.002v.097a1.25 1.25 0 0 1-1.252 1.249Zm.012-6.92a1.249 1.249 0 0 1-1.248-1.251v-.098a1.25 1.25 0 1 1 2.5.002v.098a1.252 1.252 0 0 1-1.252 1.249Zm.012-6.921c-.691 0-1.249-.56-1.248-1.251v-.097a1.25 1.25 0 0 1 2.5.002v.097a1.25 1.25 0 0 1-1.252 1.249Zm.012-6.92a1.249 1.249 0 0 1-1.248-1.251v-.098a1.25 1.25 0 1 1 2.5.002v.098a1.252 1.252 0 0 1-1.252 1.249Zm.012-6.921a1.248 1.248 0 0 1-1.248-1.251v-.097a1.25 1.25 0 0 1 2.5.001v.098a1.251 1.251 0 0 1-1.252 1.249Zm.012-6.921c-.691 0-1.249-.56-1.248-1.251v-.097a1.249 1.249 0 1 1 2.5.002v.097a1.25 1.25 0 0 1-1.252 1.249Zm.012-6.92a1.249 1.249 0 0 1-1.248-1.251v-.098a1.25 1.25 0 1 1 2.5.002v.098a1.252 1.252 0 0 1-1.252 1.249Zm.012-6.921c-.691 0-1.249-.56-1.248-1.251v-.097a1.25 1.25 0 0 1 2.5.002v.097a1.25 1.25 0 0 1-1.252 1.249Zm.012-6.92a1.249 1.249 0 0 1-1.248-1.251v-.098a1.25 1.25 0 1 1 2.5.002v.098a1.252 1.252 0 0 1-1.252 1.249Zm.012-6.921a1.249 1.249 0 0 1-1.248-1.251v-.097a1.25 1.25 0 0 1 2.5.001v.098a1.251 1.251 0 0 1-1.252 1.249Zm.012-6.92c-.691-.001-1.249-.561-1.248-1.252v-.097a1.249 1.249 0 1 1 2.5.002v.097a1.251 1.251 0 0 1-1.252 1.25Zm.012-6.921c-.691 0-1.249-.56-1.248-1.251V90.2a1.252 1.252 0 0 1 1.257-1.244c.69.003 1.247.565 1.243 1.255v.089a1.251 1.251 0 0 1-1.252 1.249Zm.971-6.174a1.25 1.25 0 0 1-.46-1.706l.049-.085a1.25 1.25 0 1 1 2.158 1.261l-.04.069a1.25 1.25 0 0 1-1.707.461Zm3.924-4.86a1.25 1.25 0 0 1 .452-1.71l.084-.048a1.25 1.25 0 1 1 1.242 2.169l-.069.04a1.249 1.249 0 0 1-1.709-.45Zm5.824-2.251a1.252 1.252 0 0 1 1.247-1.255h.097a1.251 1.251 0 0 1-.003 2.5h-.088a1.249 1.249 0 0 1-1.253-1.245Zm8.02-1.255h.095a1.25 1.25 0 1 1-.002 2.5h-.096a1.25 1.25 0 1 1 .003-2.5Zm6.771 0h.095a1.251 1.251 0 0 1-.002 2.5h-.095a1.251 1.251 0 0 1 .002-2.5Zm6.771 0h.096a1.25 1.25 0 1 1-.003 2.5h-.095a1.25 1.25 0 1 1 .002-2.5Zm6.772 0h.095c.691 0 1.25.56 1.249 1.25a1.252 1.252 0 0 1-1.251 1.25h-.096a1.251 1.251 0 0 1 .003-2.5Zm6.771 0h.096a1.25 1.25 0 0 1-.003 2.5h-.095c-.691 0-1.25-.56-1.249-1.25.001-.69.561-1.25 1.251-1.25Zm6.772 0h.047l-.002 2.5h-.048a1.25 1.25 0 1 1 .003-2.5Z"
    style="fill: rgb(96, 96, 96);" />
  <rect x="241.349" y="1.734" width="439.036" height="262.235" rx="7.318" fill="#F3F4F6" stroke="#0F766E"
    stroke-width="2" />
  <path
    d="M 418.202 52.066 L 420.938 52.066 C 420.854 51.322 420.65 50.662 420.326 50.086 C 420.016 49.526 419.593 49.035 419.084 48.646 C 418.581 48.244 418.007 47.939 417.392 47.746 C 416.746 47.539 416.072 47.435 415.394 47.44 C 414.41 47.44 413.522 47.614 412.73 47.962 C 411.973 48.293 411.298 48.784 410.75 49.402 C 410.199 50.034 409.777 50.768 409.508 51.562 C 409.213 52.419 409.067 53.32 409.076 54.226 C 409.076 55.162 409.22 56.038 409.508 56.854 C 409.78 57.631 410.202 58.346 410.75 58.96 C 411.29 59.56 411.95 60.034 412.73 60.382 C 413.522 60.718 414.41 60.886 415.394 60.886 C 416.186 60.886 416.912 60.766 417.572 60.526 C 418.212 60.298 418.8 59.943 419.3 59.482 C 419.801 59.013 420.205 58.451 420.488 57.826 C 420.788 57.178 420.974 56.452 421.046 55.648 L 418.31 55.648 C 418.202 56.512 417.902 57.208 417.41 57.736 C 416.93 58.264 416.258 58.528 415.394 58.528 C 414.758 58.528 414.218 58.408 413.774 58.168 C 413.342 57.927 412.972 57.588 412.694 57.178 C 412.414 56.76 412.207 56.298 412.082 55.81 C 411.962 55.291 411.901 54.759 411.902 54.226 C 411.902 53.662 411.962 53.116 412.082 52.588 C 412.214 52.06 412.418 51.592 412.694 51.184 C 412.97 50.764 413.33 50.434 413.774 50.194 C 414.218 49.942 414.758 49.816 415.394 49.816 C 415.742 49.816 416.072 49.876 416.384 49.996 C 417.009 50.2 417.539 50.621 417.878 51.184 C 418.046 51.448 418.154 51.742 418.202 52.066 Z M 424.974 55.954 C 424.974 55.582 425.01 55.216 425.082 54.856 C 425.145 54.519 425.267 54.196 425.442 53.902 C 425.622 53.626 425.856 53.404 426.144 53.236 C 426.432 53.056 426.792 52.966 427.224 52.966 C 427.656 52.966 428.016 53.056 428.304 53.236 C 428.604 53.404 428.838 53.626 429.006 53.902 C 429.186 54.178 429.312 54.496 429.384 54.856 C 429.529 55.581 429.529 56.327 429.384 57.052 C 429.316 57.39 429.188 57.713 429.006 58.006 C 428.834 58.286 428.592 58.515 428.304 58.672 C 428.016 58.84 427.656 58.924 427.224 58.924 C 426.792 58.924 426.432 58.84 426.144 58.672 C 425.861 58.508 425.62 58.28 425.442 58.006 C 425.271 57.71 425.149 57.387 425.082 57.052 C 425.01 56.69 424.974 56.323 424.974 55.954 Z M 422.418 55.954 C 422.418 56.698 422.532 57.37 422.76 57.97 C 422.988 58.57 423.312 59.086 423.732 59.518 C 424.152 59.938 424.656 60.262 425.244 60.49 C 425.832 60.718 426.492 60.832 427.224 60.832 C 427.956 60.832 428.616 60.718 429.204 60.49 C 429.804 60.262 430.314 59.938 430.734 59.518 C 431.154 59.086 431.478 58.57 431.706 57.97 C 431.934 57.37 432.048 56.698 432.048 55.954 C 432.048 55.21 431.934 54.538 431.706 53.938 C 431.498 53.358 431.166 52.829 430.734 52.39 C 430.303 51.951 429.781 51.613 429.204 51.4 C 428.616 51.16 427.956 51.04 427.224 51.04 C 426.492 51.04 425.832 51.16 425.244 51.4 C 424.086 51.843 423.178 52.77 422.76 53.938 C 422.532 54.538 422.418 55.21 422.418 55.954 Z M 433.71 51.292 L 433.71 60.598 L 436.266 60.598 L 436.266 55.72 C 436.266 54.772 436.422 54.094 436.734 53.686 C 437.046 53.266 437.55 53.056 438.246 53.056 C 438.858 53.056 439.284 53.248 439.524 53.632 C 439.764 54.004 439.884 54.574 439.884 55.342 L 439.884 60.598 L 442.44 60.598 L 442.44 54.874 C 442.44 54.298 442.386 53.776 442.278 53.308 C 442.182 52.828 442.008 52.426 441.756 52.102 C 441.504 51.766 441.156 51.508 440.712 51.328 C 440.28 51.136 439.722 51.04 439.038 51.04 C 438.498 51.04 437.97 51.166 437.454 51.418 C 436.938 51.658 436.518 52.048 436.194 52.588 L 436.14 52.588 L 436.14 51.292 L 433.71 51.292 Z M 450.985 55.918 C 450.985 56.302 450.949 56.674 450.877 57.034 C 450.805 57.394 450.685 57.718 450.517 58.006 C 450.349 58.282 450.114 58.511 449.833 58.672 C 449.557 58.84 449.209 58.924 448.789 58.924 C 448.393 58.924 448.051 58.84 447.763 58.672 C 447.487 58.492 447.248 58.259 447.061 57.988 C 446.876 57.688 446.742 57.36 446.665 57.016 C 446.582 56.662 446.539 56.3 446.539 55.936 C 446.539 55.552 446.575 55.186 446.647 54.838 C 446.731 54.478 446.857 54.16 447.025 53.884 C 447.205 53.608 447.439 53.386 447.727 53.218 C 448.015 53.05 448.369 52.966 448.789 52.966 C 449.209 52.966 449.557 53.05 449.833 53.218 C 450.109 53.386 450.331 53.608 450.499 53.884 C 450.679 54.148 450.805 54.46 450.877 54.82 C 450.949 55.168 450.985 55.534 450.985 55.918 Z M 451.021 59.41 L 451.021 60.598 L 453.451 60.598 L 453.451 47.746 L 450.895 47.746 L 450.895 52.426 L 450.859 52.426 C 450.574 51.973 450.161 51.616 449.671 51.4 C 449.184 51.161 448.648 51.038 448.105 51.04 C 447.421 51.04 446.821 51.178 446.305 51.454 C 445.8 51.709 445.358 52.071 445.009 52.516 C 444.673 52.96 444.415 53.476 444.235 54.064 C 444.066 54.649 443.981 55.255 443.983 55.864 C 443.983 56.512 444.067 57.136 444.235 57.736 C 444.415 58.336 444.673 58.87 445.009 59.338 C 445.357 59.794 445.795 60.16 446.323 60.436 C 446.851 60.7 447.463 60.832 448.159 60.832 C 448.771 60.832 449.317 60.724 449.797 60.508 C 450.289 60.28 450.685 59.914 450.985 59.41 L 451.021 59.41 Z M 464.113 60.598 L 464.113 51.292 L 461.557 51.292 L 461.557 56.17 C 461.557 57.118 461.401 57.802 461.089 58.222 C 460.777 58.63 460.273 58.834 459.577 58.834 C 458.965 58.834 458.539 58.648 458.299 58.276 C 458.059 57.892 457.939 57.316 457.939 56.548 L 457.939 51.292 L 455.383 51.292 L 455.383 57.016 C 455.383 57.592 455.431 58.12 455.527 58.6 C 455.635 59.068 455.815 59.47 456.067 59.806 C 456.337 60.143 456.691 60.404 457.093 60.562 C 457.537 60.742 458.101 60.832 458.785 60.832 C 459.325 60.832 459.853 60.712 460.369 60.472 C 460.885 60.232 461.305 59.842 461.629 59.302 L 461.683 59.302 L 461.683 60.598 L 464.113 60.598 Z M 472.389 54.568 L 474.891 54.568 C 474.855 53.968 474.711 53.452 474.459 53.02 C 474.215 52.585 473.877 52.21 473.469 51.922 C 473.059 51.615 472.595 51.389 472.101 51.256 C 471.586 51.11 471.052 51.038 470.517 51.04 C 469.761 51.04 469.089 51.166 468.501 51.418 C 467.931 51.657 467.421 52.02 467.007 52.48 C 466.599 52.924 466.287 53.458 466.071 54.082 C 465.862 54.727 465.759 55.402 465.765 56.08 C 465.765 56.776 465.879 57.418 466.107 58.006 C 466.335 58.582 466.653 59.08 467.061 59.5 C 467.469 59.92 467.961 60.25 468.537 60.49 C 469.125 60.718 469.767 60.832 470.463 60.832 C 471.699 60.832 472.713 60.508 473.505 59.86 C 474.297 59.212 474.777 58.27 474.945 57.034 L 472.479 57.034 C 472.395 57.61 472.185 58.072 471.849 58.42 C 471.525 58.756 471.057 58.924 470.445 58.924 C 470.049 58.924 469.713 58.834 469.437 58.654 C 469.166 58.479 468.938 58.245 468.771 57.97 C 468.611 57.67 468.496 57.349 468.429 57.016 C 468.286 56.333 468.286 55.629 468.429 54.946 C 468.501 54.586 468.621 54.262 468.789 53.974 C 468.969 53.674 469.197 53.434 469.473 53.254 C 469.749 53.062 470.091 52.966 470.499 52.966 C 471.591 52.966 472.221 53.5 472.389 54.568 Z M 479.629 51.292 L 479.629 48.502 L 477.073 48.502 L 477.073 51.292 L 475.525 51.292 L 475.525 53.002 L 477.073 53.002 L 477.073 58.492 C 477.073 58.96 477.151 59.338 477.307 59.626 C 477.463 59.914 477.673 60.136 477.937 60.292 C 478.213 60.448 478.525 60.55 478.873 60.598 C 479.233 60.658 479.611 60.688 480.007 60.688 C 480.259 60.688 480.517 60.682 480.781 60.67 C 481.045 60.658 481.285 60.634 481.501 60.598 L 481.501 58.618 C 481.376 58.643 481.25 58.661 481.123 58.672 C 480.991 58.684 480.853 58.69 480.709 58.69 C 480.277 58.69 479.989 58.618 479.845 58.474 C 479.701 58.33 479.629 58.042 479.629 57.61 L 479.629 53.002 L 481.501 53.002 L 481.501 51.292 L 479.629 51.292 Z M 484.985 55.954 C 484.985 55.582 485.021 55.216 485.093 54.856 C 485.156 54.519 485.278 54.196 485.453 53.902 C 485.633 53.626 485.867 53.404 486.155 53.236 C 486.443 53.056 486.803 52.966 487.235 52.966 C 487.667 52.966 488.027 53.056 488.315 53.236 C 488.615 53.404 488.849 53.626 489.017 53.902 C 489.197 54.178 489.323 54.496 489.395 54.856 C 489.54 55.581 489.54 56.327 489.395 57.052 C 489.327 57.39 489.199 57.713 489.017 58.006 C 488.845 58.286 488.603 58.515 488.315 58.672 C 488.027 58.84 487.667 58.924 487.235 58.924 C 486.803 58.924 486.443 58.84 486.155 58.672 C 485.872 58.508 485.631 58.28 485.453 58.006 C 485.282 57.71 485.16 57.387 485.093 57.052 C 485.021 56.69 484.985 56.323 484.985 55.954 Z M 482.429 55.954 C 482.429 56.698 482.543 57.37 482.771 57.97 C 482.999 58.57 483.323 59.086 483.743 59.518 C 484.163 59.938 484.667 60.262 485.255 60.49 C 485.843 60.718 486.503 60.832 487.235 60.832 C 487.967 60.832 488.627 60.718 489.215 60.49 C 489.815 60.262 490.325 59.938 490.745 59.518 C 491.165 59.086 491.489 58.57 491.717 57.97 C 491.945 57.37 492.059 56.698 492.059 55.954 C 492.059 55.21 491.945 54.538 491.717 53.938 C 491.509 53.358 491.177 52.829 490.745 52.39 C 490.314 51.951 489.792 51.613 489.215 51.4 C 488.627 51.16 487.967 51.04 487.235 51.04 C 486.503 51.04 485.843 51.16 485.255 51.4 C 484.097 51.843 483.189 52.77 482.771 53.938 C 482.543 54.538 482.429 55.21 482.429 55.954 Z M 493.721 51.292 L 493.721 60.598 L 496.277 60.598 L 496.277 56.404 C 496.277 55.984 496.319 55.594 496.403 55.234 C 496.477 54.897 496.617 54.579 496.817 54.298 C 497.021 54.022 497.285 53.806 497.609 53.65 C 497.933 53.494 498.329 53.416 498.797 53.416 C 498.953 53.416 499.115 53.428 499.283 53.452 C 499.451 53.464 499.595 53.482 499.715 53.506 L 499.715 51.13 C 499.511 51.07 499.325 51.04 499.157 51.04 C 498.833 51.04 498.521 51.088 498.221 51.184 C 497.921 51.28 497.639 51.418 497.375 51.598 C 497.108 51.768 496.871 51.981 496.673 52.228 C 496.469 52.468 496.307 52.732 496.187 53.02 L 496.151 53.02 L 496.151 51.292 L 493.721 51.292 Z M 515.285 59.14 L 515.573 60.598 L 517.373 60.598 L 517.373 53.65 L 511.973 53.65 L 511.973 55.756 L 514.817 55.756 C 514.733 56.656 514.433 57.346 513.917 57.826 C 513.413 58.294 512.693 58.528 511.757 58.528 C 511.121 58.528 510.581 58.408 510.137 58.168 C 509.705 57.927 509.335 57.588 509.057 57.178 C 508.777 56.76 508.57 56.298 508.445 55.81 C 508.325 55.291 508.264 54.759 508.265 54.226 C 508.265 53.662 508.325 53.116 508.445 52.588 C 508.577 52.06 508.781 51.592 509.057 51.184 C 509.333 50.764 509.693 50.434 510.137 50.194 C 510.581 49.942 511.121 49.816 511.757 49.816 C 512.441 49.816 513.023 49.996 513.503 50.356 C 513.983 50.716 514.307 51.256 514.475 51.976 L 517.175 51.976 C 517.103 51.244 516.905 50.596 516.581 50.032 C 516.267 49.479 515.844 48.996 515.339 48.61 C 514.839 48.222 514.271 47.929 513.665 47.746 C 513.05 47.541 512.405 47.438 511.757 47.44 C 510.773 47.44 509.885 47.614 509.093 47.962 C 508.336 48.293 507.661 48.784 507.113 49.402 C 506.562 50.034 506.14 50.768 505.871 51.562 C 505.576 52.419 505.43 53.32 505.439 54.226 C 505.439 55.162 505.583 56.038 505.871 56.854 C 506.143 57.631 506.565 58.346 507.113 58.96 C 507.653 59.56 508.313 60.034 509.093 60.382 C 509.885 60.718 510.773 60.886 511.757 60.886 C 512.381 60.886 512.999 60.76 513.611 60.508 C 514.223 60.244 514.781 59.788 515.285 59.14 Z M 519.277 54.154 C 519.313 53.554 519.463 53.056 519.727 52.66 C 519.991 52.264 520.327 51.946 520.735 51.706 C 521.158 51.46 521.621 51.29 522.103 51.202 C 522.612 51.095 523.131 51.04 523.651 51.04 C 524.119 51.04 524.593 51.076 525.073 51.148 C 525.553 51.208 525.991 51.334 526.387 51.526 C 526.783 51.718 527.107 51.988 527.359 52.336 C 527.611 52.672 527.737 53.122 527.737 53.686 L 527.737 58.528 C 527.737 58.948 527.761 59.35 527.809 59.734 C 527.857 60.118 527.941 60.406 528.061 60.598 L 525.469 60.598 C 525.421 60.456 525.379 60.312 525.343 60.166 C 525.319 60.011 525.301 59.855 525.289 59.698 C 524.893 60.111 524.397 60.415 523.849 60.58 C 523.301 60.747 522.73 60.832 522.157 60.832 C 521.713 60.832 521.299 60.778 520.915 60.67 C 520.549 60.571 520.206 60.4 519.907 60.166 C 519.616 59.934 519.382 59.639 519.223 59.302 C 519.067 58.954 518.989 58.54 518.989 58.06 C 518.989 57.532 519.079 57.1 519.259 56.764 C 519.451 56.416 519.691 56.14 519.979 55.936 C 520.279 55.732 520.615 55.582 520.987 55.486 C 521.366 55.379 521.75 55.295 522.139 55.234 C 522.523 55.174 522.901 55.126 523.273 55.09 C 523.607 55.06 523.937 55.006 524.263 54.928 C 524.551 54.856 524.779 54.754 524.947 54.622 C 525.115 54.478 525.193 54.274 525.181 54.01 C 525.181 53.734 525.133 53.518 525.037 53.362 C 524.96 53.201 524.834 53.069 524.677 52.984 C 524.52 52.883 524.341 52.822 524.155 52.804 C 523.947 52.767 523.736 52.749 523.525 52.75 C 523.021 52.75 522.625 52.858 522.337 53.074 C 522.049 53.29 521.881 53.65 521.833 54.154 L 519.277 54.154 Z M 525.181 56.044 C 525.059 56.148 524.919 56.227 524.767 56.278 C 524.611 56.326 524.437 56.368 524.245 56.404 C 524.065 56.44 523.873 56.47 523.669 56.494 C 523.465 56.518 523.261 56.548 523.057 56.584 C 522.862 56.621 522.67 56.669 522.481 56.728 C 522.301 56.788 522.139 56.872 521.995 56.98 C 521.863 57.076 521.755 57.202 521.671 57.358 C 521.581 57.543 521.537 57.747 521.545 57.952 C 521.545 58.18 521.587 58.372 521.671 58.528 C 521.755 58.684 521.869 58.81 522.013 58.906 C 522.157 58.99 522.325 59.05 522.517 59.086 C 522.709 59.122 522.907 59.14 523.111 59.14 C 523.615 59.14 524.005 59.056 524.281 58.888 C 524.557 58.72 524.761 58.522 524.893 58.294 C 525.025 58.054 525.103 57.814 525.127 57.574 C 525.163 57.334 525.181 57.142 525.181 56.998 L 525.181 56.044 Z M 532.961 51.292 L 532.961 48.502 L 530.405 48.502 L 530.405 51.292 L 528.857 51.292 L 528.857 53.002 L 530.405 53.002 L 530.405 58.492 C 530.405 58.96 530.483 59.338 530.639 59.626 C 530.795 59.914 531.005 60.136 531.269 60.292 C 531.545 60.448 531.857 60.55 532.205 60.598 C 532.565 60.658 532.943 60.688 533.339 60.688 C 533.591 60.688 533.849 60.682 534.113 60.67 C 534.377 60.658 534.617 60.634 534.833 60.598 L 534.833 58.618 C 534.708 58.643 534.582 58.661 534.455 58.672 C 534.323 58.684 534.185 58.69 534.041 58.69 C 533.609 58.69 533.321 58.618 533.177 58.474 C 533.033 58.33 532.961 58.042 532.961 57.61 L 532.961 53.002 L 534.833 53.002 L 534.833 51.292 L 532.961 51.292 Z M 542.313 54.946 L 538.155 54.946 C 538.172 54.739 538.208 54.534 538.263 54.334 C 538.335 54.106 538.449 53.89 538.605 53.686 C 538.783 53.474 539.004 53.302 539.253 53.182 C 539.529 53.038 539.871 52.966 540.279 52.966 C 540.903 52.966 541.365 53.134 541.665 53.47 C 541.977 53.806 542.193 54.298 542.313 54.946 Z M 538.155 56.566 L 544.869 56.566 C 544.919 55.871 544.858 55.172 544.689 54.496 C 544.532 53.859 544.251 53.26 543.861 52.732 C 543.487 52.214 542.993 51.794 542.421 51.508 C 541.833 51.196 541.143 51.04 540.351 51.04 C 539.643 51.04 538.995 51.166 538.407 51.418 C 537.831 51.67 537.333 52.018 536.913 52.462 C 536.493 52.894 536.169 53.41 535.941 54.01 C 535.709 54.632 535.593 55.291 535.599 55.954 C 535.599 56.674 535.707 57.334 535.923 57.934 C 536.151 58.534 536.469 59.05 536.877 59.482 C 537.285 59.914 537.783 60.25 538.371 60.49 C 538.959 60.718 539.619 60.832 540.351 60.832 C 541.407 60.832 542.307 60.592 543.051 60.112 C 543.795 59.632 544.347 58.834 544.707 57.718 L 542.457 57.718 C 542.373 58.006 542.145 58.282 541.773 58.546 C 541.401 58.798 540.957 58.924 540.441 58.924 C 539.721 58.924 539.169 58.738 538.785 58.366 C 538.401 57.994 538.191 57.394 538.155 56.566 Z M 557.023 60.598 L 559.957 51.292 L 557.329 51.292 L 555.619 57.592 L 555.583 57.592 L 553.999 51.292 L 551.515 51.292 L 549.967 57.61 L 549.931 57.61 L 548.221 51.292 L 545.521 51.292 L 548.473 60.598 L 551.119 60.598 L 552.703 54.352 L 552.739 54.352 L 554.395 60.598 L 557.023 60.598 Z M 560.937 54.154 C 560.973 53.554 561.123 53.056 561.387 52.66 C 561.651 52.264 561.987 51.946 562.395 51.706 C 562.818 51.46 563.281 51.29 563.763 51.202 C 564.272 51.095 564.791 51.04 565.311 51.04 C 565.779 51.04 566.253 51.076 566.733 51.148 C 567.213 51.208 567.651 51.334 568.047 51.526 C 568.443 51.718 568.767 51.988 569.019 52.336 C 569.271 52.672 569.397 53.122 569.397 53.686 L 569.397 58.528 C 569.397 58.948 569.421 59.35 569.469 59.734 C 569.517 60.118 569.601 60.406 569.721 60.598 L 567.129 60.598 C 567.081 60.456 567.039 60.312 567.003 60.166 C 566.979 60.011 566.961 59.855 566.949 59.698 C 566.553 60.111 566.057 60.415 565.509 60.58 C 564.961 60.747 564.39 60.832 563.817 60.832 C 563.373 60.832 562.959 60.778 562.575 60.67 C 562.209 60.571 561.866 60.4 561.567 60.166 C 561.276 59.934 561.042 59.639 560.883 59.302 C 560.727 58.954 560.649 58.54 560.649 58.06 C 560.649 57.532 560.739 57.1 560.919 56.764 C 561.111 56.416 561.351 56.14 561.639 55.936 C 561.939 55.732 562.275 55.582 562.647 55.486 C 563.026 55.379 563.41 55.295 563.799 55.234 C 564.183 55.174 564.561 55.126 564.933 55.09 C 565.267 55.06 565.597 55.006 565.923 54.928 C 566.211 54.856 566.439 54.754 566.607 54.622 C 566.775 54.478 566.853 54.274 566.841 54.01 C 566.841 53.734 566.793 53.518 566.697 53.362 C 566.62 53.201 566.494 53.069 566.337 52.984 C 566.18 52.883 566.001 52.822 565.815 52.804 C 565.607 52.767 565.396 52.749 565.185 52.75 C 564.681 52.75 564.285 52.858 563.997 53.074 C 563.709 53.29 563.541 53.65 563.493 54.154 L 560.937 54.154 Z M 566.841 56.044 C 566.719 56.148 566.579 56.227 566.427 56.278 C 566.271 56.326 566.097 56.368 565.905 56.404 C 565.725 56.44 565.533 56.47 565.329 56.494 C 565.125 56.518 564.921 56.548 564.717 56.584 C 564.522 56.621 564.33 56.669 564.141 56.728 C 563.961 56.788 563.799 56.872 563.655 56.98 C 563.523 57.076 563.415 57.202 563.331 57.358 C 563.241 57.543 563.197 57.747 563.205 57.952 C 563.205 58.18 563.247 58.372 563.331 58.528 C 563.415 58.684 563.529 58.81 563.673 58.906 C 563.817 58.99 563.985 59.05 564.177 59.086 C 564.369 59.122 564.567 59.14 564.771 59.14 C 565.275 59.14 565.665 59.056 565.941 58.888 C 566.217 58.72 566.421 58.522 566.553 58.294 C 566.685 58.054 566.763 57.814 566.787 57.574 C 566.823 57.334 566.841 57.142 566.841 56.998 L 566.841 56.044 Z M 575.971 61.75 L 579.859 51.292 L 577.213 51.292 L 575.179 57.664 L 575.143 57.664 L 573.037 51.292 L 570.319 51.292 L 573.577 60.022 C 573.649 60.202 573.685 60.394 573.685 60.598 C 573.685 60.874 573.601 61.126 573.433 61.354 C 573.277 61.582 573.031 61.714 572.695 61.75 C 572.443 61.762 572.19 61.756 571.939 61.732 L 571.201 61.66 L 571.201 63.766 C 571.465 63.79 571.723 63.808 571.975 63.82 C 572.239 63.844 572.503 63.856 572.767 63.856 C 573.643 63.856 574.327 63.694 574.819 63.37 C 575.311 63.046 575.695 62.506 575.971 61.75 Z"
    fill="#000" />
  <g clip-path="url(#a)" fill="#0F766E">
    <path fill-rule="evenodd" clip-rule="evenodd"
      d="M358.615 49.346c.459.155.954.244 1.465.244a4.63 4.63 0 0 0 1.324-.2v12.138c0 .429.229.828.599 1.043l11.605 6.753a2.978 2.978 0 0 1 2.271-1.058c.991 0 1.864.488 2.411 1.235.007.015.022.03.029.037a3.4 3.4 0 0 1 .111.17l.037.067c.03.052.06.104.089.163l.045.089.066.155.044.11c.015.045.03.097.045.149.015.044.022.096.037.14l.029.133c.015.06.023.119.03.178 0 .037.015.067.015.104.007.096.015.192.015.295 0 .156-.015.311-.037.459v.06c-.252 1.412-1.48 2.492-2.952 2.492a2.992 2.992 0 0 1-2.832-2.05l-12.449-7.24a4.02 4.02 0 0 1-1.997-3.477V49.346Zm32.574-7.382c1.65 0 2.988 1.354 2.988 3.01 0 .903-.399 1.717-1.028 2.264v14.29a4.017 4.017 0 0 1-1.997 3.476l-10.688 6.213a4.675 4.675 0 0 0-.917-2.714l10.215-5.94c.37-.214.599-.613.599-1.042V47.867a3.015 3.015 0 0 1-1.583-4.675c0-.007.015-.015.015-.022.066-.089.14-.185.222-.266v-.015c.177-.17.355-.326.554-.451.023-.015.045-.03.067-.037.081-.045.163-.096.244-.133.022-.015.052-.023.074-.037a4.32 4.32 0 0 1 .326-.126l.214-.06c.222-.051.451-.08.688-.08h.007Zm-15.303-7.61c.688 0 1.376.177 1.997.54l10.755 6.25a4.609 4.609 0 0 0-1.739 2.233l-10.414-6.05a1.235 1.235 0 0 0-.599-.163 1.16 1.16 0 0 0-.599.163l-12.263 7.13a3.026 3.026 0 0 1-1.916 3.35c-.007 0-.015 0-.03.008-.088.03-.185.06-.273.081l-.06.015c-.088.022-.177.037-.266.052h-.074c-.111.022-.222.03-.333.03a2.97 2.97 0 0 1-.458-.038c-.089-.014-.178-.03-.266-.051-.03 0-.052-.015-.082-.022a2.948 2.948 0 0 1-.666-.274l-.177-.111a3.008 3.008 0 0 1-1.346-2.515c.015-1.664 1.353-3.018 3.003-3.018.429 0 .836.09 1.205.26l12.604-7.33a4.008 4.008 0 0 1 1.997-.54Z" />
    <path
      d="m379.141 52.06 1.915-1.39a1.66 1.66 0 0 1 .977-.318h.732c.096.547.606.969 1.235.969h2.219c.688 0 1.25-.518 1.25-1.146v-.977c0-.636-.562-1.146-1.25-1.146H384c-.621 0-1.139.421-1.235.976h-.732c-.637 0-1.243.2-1.753.57l-1.916 1.39a1.657 1.657 0 0 1-.976.318h-4.246a1.694 1.694 0 0 0-.954-.296h-6.198c-.925 0-1.679.755-1.679 1.68v3.276c0 .925.754 1.679 1.679 1.679h6.198c.355 0 .68-.111.954-.296h4.246c.355 0 .687.111.976.318l1.916 1.39c.51.37 1.124.57 1.753.57h.732c.096.547.606.97 1.235.97h2.219c.688 0 1.25-.519 1.25-1.147v-.977c0-.636-.562-1.146-1.25-1.146H384c-.621 0-1.139.422-1.235.969h-.732a1.66 1.66 0 0 1-.977-.318l-1.915-1.39a2.974 2.974 0 0 0-1.753-.57h-3.528v-1.021h8.897c.097.547.607.969 1.236.969h2.219c.687 0 1.25-.518 1.25-1.147v-.976c0-.636-.563-1.146-1.25-1.146h-2.219c-.622 0-1.139.421-1.236.976h-8.897v-1.021h3.528c.636 0 1.242-.2 1.753-.57v-.021Zm4.933-2.677h2.056v.614h-2.056v-.614Zm0 9.268h2.056v.614h-2.056v-.614Zm0-4.638h2.056v.614h-2.056v-.614Zm-11.886 2.293h-6.198a.347.347 0 0 1-.348-.347v-3.277c0-.192.155-.348.348-.348h6.198c.192 0 .348.156.348.348v3.276a.348.348 0 0 1-.348.348Z" />
  </g>
  <path
    d="m774.696 241.808.288 1.458h1.8v-6.948h-5.4v2.106h2.844c-.084.9-.384 1.59-.9 2.07-.504.468-1.224.702-2.16.702-.636 0-1.176-.12-1.62-.36a3.174 3.174 0 0 1-1.08-.99 4.418 4.418 0 0 1-.612-1.368 6.97 6.97 0 0 1-.18-1.584c0-.564.06-1.11.18-1.638.132-.528.336-.996.612-1.404.276-.42.636-.75 1.08-.99.444-.252.984-.378 1.62-.378.684 0 1.266.18 1.746.54.48.36.804.9.972 1.62h2.7c-.072-.732-.27-1.38-.594-1.944a4.726 4.726 0 0 0-1.242-1.422 5.16 5.16 0 0 0-1.674-.864 5.994 5.994 0 0 0-1.908-.306c-.984 0-1.872.174-2.664.522a5.7 5.7 0 0 0-1.98 1.44 6.404 6.404 0 0 0-1.242 2.16 7.952 7.952 0 0 0-.432 2.664c0 .936.144 1.812.432 2.628a6.272 6.272 0 0 0 1.242 2.106c.54.6 1.2 1.074 1.98 1.422.792.336 1.68.504 2.664.504.624 0 1.242-.126 1.854-.378.612-.264 1.17-.72 1.674-1.368Zm4.1-7.848v9.306h2.556v-4.194c0-.42.042-.81.126-1.17a2.56 2.56 0 0 1 .414-.936c.204-.276.468-.492.792-.648.324-.156.72-.234 1.188-.234.156 0 .318.012.486.036.168.012.312.03.432.054v-2.376c-.204-.06-.39-.09-.558-.09-.324 0-.636.048-.936.144-.3.096-.582.234-.846.414a2.91 2.91 0 0 0-.702.63c-.204.24-.366.504-.486.792h-.036v-1.728h-2.43Zm6.888 2.862c.036-.6.186-1.098.45-1.494.264-.396.6-.714 1.008-.954a4.24 4.24 0 0 1 1.368-.504 7.538 7.538 0 0 1 1.548-.162c.468 0 .942.036 1.422.108.48.06.918.186 1.314.378s.72.462.972.81c.252.336.378.786.378 1.35v4.842c0 .42.024.822.072 1.206.048.384.132.672.252.864h-2.592a5.861 5.861 0 0 1-.126-.432 6.208 6.208 0 0 1-.054-.468 3.33 3.33 0 0 1-1.44.882 5.78 5.78 0 0 1-1.692.252c-.444 0-.858-.054-1.242-.162a2.844 2.844 0 0 1-1.008-.504 2.432 2.432 0 0 1-.684-.864c-.156-.348-.234-.762-.234-1.242 0-.528.09-.96.27-1.296.192-.348.432-.624.72-.828.3-.204.636-.354 1.008-.45a9.894 9.894 0 0 1 1.152-.252c.384-.06.762-.108 1.134-.144a6.82 6.82 0 0 0 .99-.162c.288-.072.516-.174.684-.306.168-.144.246-.348.234-.612 0-.276-.048-.492-.144-.648a.846.846 0 0 0-.36-.378 1.174 1.174 0 0 0-.522-.18 3.424 3.424 0 0 0-.63-.054c-.504 0-.9.108-1.188.324-.288.216-.456.576-.504 1.08h-2.556Zm5.904 1.89a1.246 1.246 0 0 1-.414.234c-.156.048-.33.09-.522.126-.18.036-.372.066-.576.09-.204.024-.408.054-.612.09a5.05 5.05 0 0 0-.576.144c-.18.06-.342.144-.486.252-.132.096-.24.222-.324.378a1.245 1.245 0 0 0-.126.594c0 .228.042.42.126.576.084.156.198.282.342.378.144.084.312.144.504.18.192.036.39.054.594.054.504 0 .894-.084 1.17-.252.276-.168.48-.366.612-.594.132-.24.21-.48.234-.72.036-.24.054-.432.054-.576v-.954Zm9.238 2.88c-.408 0-.756-.084-1.044-.252a2.142 2.142 0 0 1-.702-.648 3.236 3.236 0 0 1-.378-.954 5.678 5.678 0 0 1 0-2.214 2.92 2.92 0 0 1 .36-.954c.18-.276.408-.498.684-.666.288-.18.642-.27 1.062-.27.408 0 .75.09 1.026.27.288.168.522.396.702.684.18.276.306.594.378.954.084.36.126.726.126 1.098 0 .372-.036.738-.108 1.098-.072.36-.198.678-.378.954-.168.264-.396.48-.684.648-.276.168-.624.252-1.044.252Zm-4.698-7.632v12.564h2.556v-4.41h.036c.312.456.708.804 1.188 1.044a3.763 3.763 0 0 0 1.602.342c.684 0 1.278-.132 1.782-.396a3.678 3.678 0 0 0 1.278-1.062 4.49 4.49 0 0 0 .774-1.53 6.396 6.396 0 0 0 .252-1.8c0-.66-.084-1.29-.252-1.89a4.629 4.629 0 0 0-.774-1.602 3.902 3.902 0 0 0-1.314-1.098c-.528-.276-1.158-.414-1.89-.414-.576 0-1.104.114-1.584.342-.48.228-.876.594-1.188 1.098h-.036v-1.188h-2.43Zm11.004-3.546v12.852h2.556v-4.878c0-.948.156-1.626.468-2.034.312-.42.816-.63 1.512-.63.612 0 1.038.192 1.278.576.24.372.36.942.36 1.71v5.256h2.556v-5.724c0-.576-.054-1.098-.162-1.566-.096-.48-.27-.882-.522-1.206-.252-.336-.6-.594-1.044-.774-.432-.192-.99-.288-1.674-.288-.48 0-.972.126-1.476.378-.504.24-.918.63-1.242 1.17h-.054v-4.842h-2.556Zm19.4 9.432c.24-.324.432-.726.576-1.206.144-.48.216-1.062.216-1.746 0-.564-.066-1.11-.198-1.638a4.101 4.101 0 0 0-.594-1.404 2.952 2.952 0 0 0-1.08-.99c-.444-.252-.984-.378-1.62-.378-.636 0-1.176.126-1.62.378-.444.24-.804.57-1.08.99-.276.408-.48.876-.612 1.404a7.368 7.368 0 0 0-.18 1.638c0 .54.06 1.068.18 1.584.132.504.336.96.612 1.368.276.408.636.738 1.08.99.444.24.984.36 1.62.36.3 0 .528-.012.684-.036.156-.024.306-.072.45-.144l-1.206-1.098 1.314-1.404 1.458 1.332Zm.414 2.97c-.852.492-1.89.738-3.114.738-.984 0-1.872-.168-2.664-.504a5.81 5.81 0 0 1-1.98-1.422 6.272 6.272 0 0 1-1.242-2.106 7.84 7.84 0 0 1-.432-2.628c0-.96.144-1.848.432-2.664a6.404 6.404 0 0 1 1.242-2.16 5.7 5.7 0 0 1 1.98-1.44c.792-.348 1.68-.522 2.664-.522.996 0 1.884.174 2.664.522a5.7 5.7 0 0 1 1.98 1.44c.54.612.954 1.332 1.242 2.16.288.816.432 1.704.432 2.664 0 .936-.144 1.806-.432 2.61a6.475 6.475 0 0 1-1.242 2.124l1.602 1.458-1.314 1.368-1.818-1.638Zm5.136-12.402v12.852h9.09v-2.376h-6.264v-10.476h-2.826ZM773.319 261h-2.736c-.012.792.132 1.476.432 2.052.3.576.702 1.05 1.206 1.422a5.16 5.16 0 0 0 1.764.81c.672.18 1.362.27 2.07.27.876 0 1.644-.102 2.304-.306.672-.204 1.23-.486 1.674-.846.456-.372.798-.81 1.026-1.314.228-.504.342-1.05.342-1.638 0-.72-.156-1.308-.468-1.764-.3-.468-.66-.84-1.08-1.116a4.542 4.542 0 0 0-1.278-.594c-.42-.132-.75-.222-.99-.27-.804-.204-1.458-.372-1.962-.504a7.682 7.682 0 0 1-1.17-.396c-.276-.132-.462-.276-.558-.432-.096-.156-.144-.36-.144-.612 0-.276.06-.504.18-.684.12-.18.27-.33.45-.45.192-.12.402-.204.63-.252.228-.048.456-.072.684-.072.348 0 .666.03.954.09.3.06.564.162.792.306.228.144.408.342.54.594.144.252.228.57.252.954h2.736c0-.744-.144-1.374-.432-1.89a3.583 3.583 0 0 0-1.134-1.296 4.696 4.696 0 0 0-1.656-.72 7.77 7.77 0 0 0-1.926-.234c-.576 0-1.152.078-1.728.234a4.824 4.824 0 0 0-1.548.72 3.898 3.898 0 0 0-1.116 1.224c-.276.48-.414 1.05-.414 1.71 0 .588.108 1.092.324 1.512.228.408.522.75.882 1.026s.768.504 1.224.684c.456.168.924.312 1.404.432.468.132.93.252 1.386.36.456.108.864.234 1.224.378s.648.324.864.54c.228.216.342.498.342.846 0 .324-.084.594-.252.81a1.813 1.813 0 0 1-.63.486c-.252.12-.522.204-.81.252a6.55 6.55 0 0 1-.81.054c-.372 0-.732-.042-1.08-.126a3.06 3.06 0 0 1-.918-.414 2.171 2.171 0 0 1-.612-.738c-.156-.3-.234-.666-.234-1.098Zm15.758-1.386h-4.158a3.3 3.3 0 0 1 .108-.612c.072-.228.186-.444.342-.648a1.96 1.96 0 0 1 .648-.504c.276-.144.618-.216 1.026-.216.624 0 1.086.168 1.386.504.312.336.528.828.648 1.476Zm-4.158 1.62h6.714a6.57 6.57 0 0 0-.18-2.07 4.978 4.978 0 0 0-.828-1.764 3.967 3.967 0 0 0-1.44-1.224c-.588-.312-1.278-.468-2.07-.468-.708 0-1.356.126-1.944.378-.576.252-1.074.6-1.494 1.044-.42.432-.744.948-.972 1.548a5.428 5.428 0 0 0-.342 1.944c0 .72.108 1.38.324 1.98.228.6.546 1.116.954 1.548.408.432.906.768 1.494 1.008.588.228 1.248.342 1.98.342 1.056 0 1.956-.24 2.7-.72.744-.48 1.296-1.278 1.656-2.394h-2.25c-.084.288-.312.564-.684.828-.372.252-.816.378-1.332.378-.72 0-1.272-.186-1.656-.558-.384-.372-.594-.972-.63-1.8Zm8.23-5.274v9.306h2.556v-4.194c0-.42.042-.81.126-1.17a2.56 2.56 0 0 1 .414-.936c.204-.276.468-.492.792-.648.324-.156.72-.234 1.188-.234.156 0 .318.012.486.036.168.012.312.03.432.054v-2.376c-.204-.06-.39-.09-.558-.09-.324 0-.636.048-.936.144-.3.096-.582.234-.846.414a2.91 2.91 0 0 0-.702.63c-.204.24-.366.504-.486.792h-.036v-1.728h-2.43Zm12.144 9.306 3.15-9.306h-2.538l-1.962 6.354h-.036l-1.962-6.354h-2.682l3.186 9.306h2.844Zm10.467-5.652h-4.158a3.3 3.3 0 0 1 .108-.612c.072-.228.186-.444.342-.648a1.96 1.96 0 0 1 .648-.504c.276-.144.618-.216 1.026-.216.624 0 1.086.168 1.386.504.312.336.528.828.648 1.476Zm-4.158 1.62h6.714a6.57 6.57 0 0 0-.18-2.07 4.978 4.978 0 0 0-.828-1.764 3.967 3.967 0 0 0-1.44-1.224c-.588-.312-1.278-.468-2.07-.468-.708 0-1.356.126-1.944.378-.576.252-1.074.6-1.494 1.044-.42.432-.744.948-.972 1.548a5.428 5.428 0 0 0-.342 1.944c0 .72.108 1.38.324 1.98.228.6.546 1.116.954 1.548.408.432.906.768 1.494 1.008.588.228 1.248.342 1.98.342 1.056 0 1.956-.24 2.7-.72.744-.48 1.296-1.278 1.656-2.394h-2.25c-.084.288-.312.564-.684.828-.372.252-.816.378-1.332.378-.72 0-1.272-.186-1.656-.558-.384-.372-.594-.972-.63-1.8Zm8.23-5.274v9.306h2.556v-4.194c0-.42.042-.81.126-1.17a2.56 2.56 0 0 1 .414-.936c.204-.276.468-.492.792-.648.324-.156.72-.234 1.188-.234.156 0 .318.012.486.036.168.012.312.03.432.054v-2.376c-.204-.06-.39-.09-.558-.09-.324 0-.636.048-.936.144-.3.096-.582.234-.846.414a2.91 2.91 0 0 0-.702.63c-.204.24-.366.504-.486.792h-.036v-1.728h-2.43Zm8.976 6.282h-2.43c.024.624.162 1.146.414 1.566.264.408.594.738.99.99.408.252.87.432 1.386.54a7.711 7.711 0 0 0 1.584.162c.528 0 1.044-.054 1.548-.162.516-.096.972-.27 1.368-.522.396-.252.714-.582.954-.99.252-.42.378-.936.378-1.548 0-.432-.084-.792-.252-1.08-.168-.3-.39-.546-.666-.738a3.401 3.401 0 0 0-.954-.486c-.348-.12-.708-.222-1.08-.306-.36-.084-.714-.162-1.062-.234-.348-.072-.66-.15-.936-.234a2.077 2.077 0 0 1-.648-.36.7.7 0 0 1-.252-.558c0-.192.048-.342.144-.45.096-.12.21-.21.342-.27.144-.06.3-.096.468-.108.168-.024.324-.036.468-.036.456 0 .852.09 1.188.27.336.168.522.498.558.99h2.43c-.048-.576-.198-1.05-.45-1.422a2.797 2.797 0 0 0-.918-.918 3.88 3.88 0 0 0-1.278-.486 7.508 7.508 0 0 0-2.934 0c-.48.084-.912.24-1.296.468a2.585 2.585 0 0 0-.936.9c-.228.384-.342.876-.342 1.476 0 .408.084.756.252 1.044.168.276.39.51.666.702.276.18.588.33.936.45.36.108.726.204 1.098.288.912.192 1.62.384 2.124.576.516.192.774.48.774.864 0 .228-.054.42-.162.576a1.341 1.341 0 0 1-.414.36c-.156.084-.336.15-.54.198a3.026 3.026 0 0 1-1.296-.036 2.021 2.021 0 0 1-.612-.27 1.74 1.74 0 0 1-.45-.486 1.518 1.518 0 0 1-.162-.72Z"
    style="fill: rgb(96, 96, 96);" />
  <path d="M194.568 35.645h46.729v91.812h-46.729V35.645Z" fill="#F3F4F6" />
  <path
    d="M194.568 35.645v-1h-1v1h1Zm46.729 0h1v-1h-1v1Zm0 91.812v1h1v-1h-1Zm-46.729 0h-1v1h1v-1Zm0-90.812h46.729v-2h-46.729v2Zm45.729-1v91.812h2V35.645h-2Zm1 90.812h-46.729v2h46.729v-2Zm-45.729 1V35.645h-2v91.812h2Z"
    fill="#0F766E" />
  <path d="M194.568 139.443h46.729v91.813h-46.729v-91.813Z" fill="#F3F4F6" />
  <path
    d="M194.568 139.443v-1h-1v1h1Zm46.729 0h1v-1h-1v1Zm0 91.813v1h1v-1h-1Zm-46.729 0h-1v1h1v-1Zm0-90.813h46.729v-2h-46.729v2Zm45.729-1v91.813h2v-91.813h-2Zm1 90.813h-46.729v2h46.729v-2Zm-45.729 1v-91.813h-2v91.813h2Z"
    fill="#0F766E" />
  <ellipse cx="193.568" cy="81.551" rx="7.133" ry="46.916" fill="#0F766E" />
  <ellipse cx="193.568" cy="185.349" rx="7.133" ry="46.916" fill="#0F766E" />
  <path
    d="M214.836 118.718h12.852v-9.756h-2.376v6.93h-3.15v-6.228h-2.196v6.228h-2.754v-6.786h-2.376v9.612Zm3.546-11.401h9.306v-2.556h-4.878c-.948 0-1.626-.156-2.034-.468-.42-.312-.63-.816-.63-1.512 0-.612.192-1.038.576-1.278.372-.24.942-.36 1.71-.36h5.256v-2.556h-5.724c-.576 0-1.098.054-1.566.162-.48.096-.882.27-1.206.522-.336.252-.594.6-.774 1.044-.192.432-.288.99-.288 1.674 0 .54.126 1.068.378 1.584.24.516.63.936 1.17 1.26v.054h-1.296v2.43Zm4.626-17.276c.384 0 .756.036 1.116.108.36.072.684.192.972.36.276.168.498.396.666.684.168.276.252.624.252 1.044 0 .396-.084.738-.252 1.026-.18.276-.408.51-.684.702-.288.18-.612.312-.972.396-.36.084-.72.126-1.08.126a5.41 5.41 0 0 1-1.098-.108 3.236 3.236 0 0 1-.954-.378 2.073 2.073 0 0 1-.666-.702c-.168-.288-.252-.642-.252-1.062 0-.42.084-.768.252-1.044.168-.276.39-.498.666-.666.264-.18.576-.306.936-.378a5.41 5.41 0 0 1 1.098-.108Zm3.492-.036h1.188v-2.43h-12.852v2.556h4.68v.036a2.677 2.677 0 0 0-1.026 1.188 3.526 3.526 0 0 0-.36 1.566c0 .684.138 1.284.414 1.8.264.516.618.948 1.062 1.296.444.336.96.594 1.548.774a6.396 6.396 0 0 0 1.8.252 6.91 6.91 0 0 0 1.872-.252c.6-.18 1.134-.438 1.602-.774a3.902 3.902 0 0 0 1.098-1.314c.264-.528.396-1.14.396-1.836 0-.612-.108-1.158-.324-1.638-.228-.492-.594-.888-1.098-1.188v-.036Zm-.486-9.06c0 .408-.084.756-.252 1.044a2.142 2.142 0 0 1-.648.702 3.236 3.236 0 0 1-.954.378 5.678 5.678 0 0 1-2.214 0 2.92 2.92 0 0 1-.954-.36 2.132 2.132 0 0 1-.666-.684c-.18-.288-.27-.642-.27-1.062 0-.408.09-.75.27-1.026.168-.288.396-.522.684-.702.276-.18.594-.306.954-.378.36-.084.726-.126 1.098-.126.372 0 .738.036 1.098.108.36.072.678.198.954.378.264.168.48.396.648.684.168.276.252.624.252 1.044Zm-7.632 4.698h12.564v-2.556h-4.41v-.036a3.103 3.103 0 0 0 1.044-1.188 3.763 3.763 0 0 0 .342-1.602c0-.684-.132-1.278-.396-1.782a3.678 3.678 0 0 0-1.062-1.278 4.49 4.49 0 0 0-1.53-.774 6.396 6.396 0 0 0-1.8-.252c-.66 0-1.29.084-1.89.252a4.629 4.629 0 0 0-1.602.774 3.902 3.902 0 0 0-1.098 1.314c-.276.528-.414 1.158-.414 1.89 0 .576.114 1.104.342 1.584.228.48.594.876 1.098 1.188v.036h-1.188v2.43Zm4.662-13.272c-.372 0-.738-.036-1.098-.108a2.92 2.92 0 0 1-.954-.36 2.073 2.073 0 0 1-.666-.702c-.18-.288-.27-.648-.27-1.08 0-.432.09-.792.27-1.08.168-.3.39-.534.666-.702.276-.18.594-.306.954-.378a5.585 5.585 0 0 1 2.196 0c.348.072.666.198.954.378.276.168.498.402.666.702.168.288.252.648.252 1.08 0 .432-.084.792-.252 1.08-.168.288-.39.522-.666.702a3.142 3.142 0 0 1-.954.36c-.36.072-.726.108-1.098.108Zm0 2.556c.744 0 1.416-.114 2.016-.342a4.467 4.467 0 0 0 1.548-.972c.42-.42.744-.924.972-1.512.228-.588.342-1.248.342-1.98s-.114-1.392-.342-1.98a4.282 4.282 0 0 0-.972-1.53 4.467 4.467 0 0 0-1.548-.972c-.6-.228-1.272-.342-2.016-.342s-1.416.114-2.016.342a4.254 4.254 0 0 0-1.548.972c-.432.42-.762.93-.99 1.53-.24.588-.36 1.248-.36 1.98s.12 1.392.36 1.98a4.254 4.254 0 0 0 2.538 2.484c.6.228 1.272.342 2.016.342Zm-6.102-13.92h-2.106v2.556h2.106v-2.556Zm1.44 2.556h9.306v-2.556h-9.306v2.556Zm0-4.569h9.306v-2.556h-4.878c-.948 0-1.626-.156-2.034-.468-.42-.312-.63-.816-.63-1.512 0-.612.192-1.038.576-1.278.372-.24.942-.36 1.71-.36h5.256v-2.556h-5.724c-.576 0-1.098.054-1.566.162-.48.096-.882.27-1.206.522-.336.252-.594.6-.774 1.044-.192.432-.288.99-.288 1.674 0 .54.126 1.068.378 1.584.24.516.63.936 1.17 1.26v.054h-1.296v2.43Zm0-13.91h-2.79v2.556h2.79v1.548h1.71V47.64h5.49c.468 0 .846-.078 1.134-.234.288-.156.51-.366.666-.63.156-.276.258-.588.306-.936.06-.36.09-.738.09-1.134 0-.252-.006-.51-.018-.774a6.082 6.082 0 0 0-.072-.72h-1.98c.024.12.042.246.054.378.012.132.018.27.018.414 0 .432-.072.72-.216.864-.144.144-.432.216-.864.216h-4.608v-1.872h-1.71v1.872ZM214.836 222.517h12.852v-9.756h-2.376v6.93h-3.15v-6.228h-2.196v6.228h-2.754v-6.786h-2.376v9.612Zm3.546-11.402h9.306v-2.556h-4.878c-.948 0-1.626-.156-2.034-.468-.42-.312-.63-.816-.63-1.512 0-.612.192-1.038.576-1.278.372-.24.942-.36 1.71-.36h5.256v-2.556h-5.724c-.576 0-1.098.054-1.566.162-.48.096-.882.27-1.206.522-.336.252-.594.6-.774 1.044-.192.432-.288.99-.288 1.674 0 .54.126 1.068.378 1.584.24.516.63.936 1.17 1.26v.054h-1.296v2.43Zm4.626-17.276c.384 0 .756.036 1.116.108.36.072.684.192.972.36.276.168.498.396.666.684.168.276.252.624.252 1.044 0 .396-.084.738-.252 1.026-.18.276-.408.51-.684.702-.288.18-.612.312-.972.396-.36.084-.72.126-1.08.126a5.41 5.41 0 0 1-1.098-.108 3.236 3.236 0 0 1-.954-.378 2.073 2.073 0 0 1-.666-.702c-.168-.288-.252-.642-.252-1.062 0-.42.084-.768.252-1.044.168-.276.39-.498.666-.666.264-.18.576-.306.936-.378a5.41 5.41 0 0 1 1.098-.108Zm3.492-.036h1.188v-2.43h-12.852v2.556h4.68v.036a2.677 2.677 0 0 0-1.026 1.188 3.526 3.526 0 0 0-.36 1.566c0 .684.138 1.284.414 1.8.264.516.618.948 1.062 1.296.444.336.96.594 1.548.774a6.396 6.396 0 0 0 1.8.252 6.91 6.91 0 0 0 1.872-.252c.6-.18 1.134-.438 1.602-.774a3.902 3.902 0 0 0 1.098-1.314c.264-.528.396-1.14.396-1.836 0-.612-.108-1.158-.324-1.638-.228-.492-.594-.888-1.098-1.188v-.036Zm-.486-9.06c0 .408-.084.756-.252 1.044a2.142 2.142 0 0 1-.648.702 3.236 3.236 0 0 1-.954.378 5.678 5.678 0 0 1-2.214 0 2.92 2.92 0 0 1-.954-.36 2.132 2.132 0 0 1-.666-.684c-.18-.288-.27-.642-.27-1.062 0-.408.09-.75.27-1.026.168-.288.396-.522.684-.702.276-.18.594-.306.954-.378.36-.084.726-.126 1.098-.126.372 0 .738.036 1.098.108.36.072.678.198.954.378.264.168.48.396.648.684.168.276.252.624.252 1.044Zm-7.632 4.698h12.564v-2.556h-4.41v-.036a3.103 3.103 0 0 0 1.044-1.188 3.763 3.763 0 0 0 .342-1.602c0-.684-.132-1.278-.396-1.782a3.678 3.678 0 0 0-1.062-1.278 4.49 4.49 0 0 0-1.53-.774 6.396 6.396 0 0 0-1.8-.252c-.66 0-1.29.084-1.89.252a4.629 4.629 0 0 0-1.602.774 3.902 3.902 0 0 0-1.098 1.314c-.276.528-.414 1.158-.414 1.89 0 .576.114 1.104.342 1.584.228.48.594.876 1.098 1.188v.036h-1.188v2.43Zm4.662-13.272c-.372 0-.738-.036-1.098-.108a2.92 2.92 0 0 1-.954-.36 2.073 2.073 0 0 1-.666-.702c-.18-.288-.27-.648-.27-1.08 0-.432.09-.792.27-1.08.168-.3.39-.534.666-.702.276-.18.594-.306.954-.378a5.585 5.585 0 0 1 2.196 0c.348.072.666.198.954.378.276.168.498.402.666.702.168.288.252.648.252 1.08 0 .432-.084.792-.252 1.08-.168.288-.39.522-.666.702a3.142 3.142 0 0 1-.954.36c-.36.072-.726.108-1.098.108Zm0 2.556c.744 0 1.416-.114 2.016-.342a4.467 4.467 0 0 0 1.548-.972c.42-.42.744-.924.972-1.512.228-.588.342-1.248.342-1.98s-.114-1.392-.342-1.98a4.282 4.282 0 0 0-.972-1.53 4.467 4.467 0 0 0-1.548-.972c-.6-.228-1.272-.342-2.016-.342s-1.416.114-2.016.342a4.254 4.254 0 0 0-1.548.972c-.432.42-.762.93-.99 1.53-.24.588-.36 1.248-.36 1.98s.12 1.392.36 1.98a4.254 4.254 0 0 0 2.538 2.484c.6.228 1.272.342 2.016.342Zm-6.102-13.92h-2.106v2.556h2.106v-2.556Zm1.44 2.556h9.306v-2.556h-9.306v2.556Zm0-4.568h9.306v-2.556h-4.878c-.948 0-1.626-.156-2.034-.468-.42-.312-.63-.816-.63-1.512 0-.612.192-1.038.576-1.278.372-.24.942-.36 1.71-.36h5.256v-2.556h-5.724c-.576 0-1.098.054-1.566.162-.48.096-.882.27-1.206.522-.336.252-.594.6-.774 1.044-.192.432-.288.99-.288 1.674 0 .54.126 1.068.378 1.584.24.516.63.936 1.17 1.26v.054h-1.296v2.43Zm0-13.91h-2.79v2.556h2.79v1.548h1.71v-1.548h5.49c.468 0 .846-.078 1.134-.234.288-.156.51-.366.666-.63.156-.276.258-.588.306-.936.06-.36.09-.738.09-1.134 0-.252-.006-.51-.018-.774a6.082 6.082 0 0 0-.072-.72h-1.98c.024.12.042.246.054.378.012.132.018.27.018.414 0 .432-.072.72-.216.864-.144.144-.432.216-.864.216h-4.608v-1.872h-1.71v1.872Z"
    fill="#000" />
  <path fill-rule="evenodd" clip-rule="evenodd"
    d="M181.808 82.855h-.05a1.25 1.25 0 0 1-.007-2.5h.1a1.25 1.25 0 0 1 0 2.5h-.043Zm4.809-1.25c0-.69.56-1.25 1.25-1.25h.086a1.25 1.25 0 0 1 0 2.5h-.086c-.69 0-1.25-.56-1.25-1.25Zm6.102 0c0-.69.56-1.25 1.25-1.25h.086a1.25 1.25 0 1 1 0 2.5h-.086c-.69 0-1.25-.56-1.25-1.25Zm6.103 0c0-.69.559-1.25 1.25-1.25h.043v2.5h-.043a1.25 1.25 0 0 1-1.25-1.25Zm-23.083.946a1.25 1.25 0 0 1-.68 1.632l-.091.037a1.25 1.25 0 1 1-.964-2.306l.104-.043a1.25 1.25 0 0 1 1.631.68Zm-6.443 3.7a1.25 1.25 0 0 1-.005 1.768l-.069.07a1.25 1.25 0 0 1-1.773-1.763l.079-.08a1.25 1.25 0 0 1 1.768.005Zm-4.544 5.88c.637.266.937.998.671 1.635l-.038.09a1.25 1.25 0 1 1-2.312-.95l.043-.104a1.25 1.25 0 0 1 1.636-.672Zm-1.941 7.171a1.25 1.25 0 0 1 1.247 1.254v.098a1.25 1.25 0 0 1-2.5 0V100.549a1.25 1.25 0 0 1 1.253-1.247Zm-.003 6.947c.69 0 1.25.56 1.25 1.25v.098a1.25 1.25 0 0 1-2.5 0v-.098c0-.69.559-1.25 1.25-1.25Zm0 6.943c.69 0 1.25.56 1.25 1.25V114.547a1.25 1.25 0 0 1-2.5-.006v-.099c0-.69.559-1.25 1.25-1.25Zm-.946 7.368c.638.262.943.993.68 1.631a4.568 4.568 0 0 1-.043.104 1.25 1.25 0 0 1-2.306-.965l.037-.09a1.25 1.25 0 0 1 1.632-.68Zm-3.701 6.443c.49.486.492 1.278.005 1.767l-.079.08a1.25 1.25 0 0 1-1.763-1.773l.07-.07a1.25 1.25 0 0 1 1.767-.004Zm-5.879 4.544a1.25 1.25 0 0 1-.671 1.636l-.103.042a1.25 1.25 0 1 1-.951-2.312l.09-.037a1.25 1.25 0 0 1 1.635.671Zm-91.414 3.194h-.049v-2.5h.05a1.25 1.25 0 0 1 0 2.5Zm5.568-1.25c0-.69.56-1.25 1.25-1.25h.098a1.25 1.25 0 0 1 0 2.5h-.098c-.69 0-1.25-.56-1.25-1.25Zm6.916 0c0-.69.56-1.25 1.25-1.25h.098a1.25 1.25 0 0 1 0 2.5h-.098c-.69 0-1.25-.56-1.25-1.25Zm6.916 0c0-.69.56-1.25 1.25-1.25h.097a1.25 1.25 0 0 1 0 2.5h-.097c-.69 0-1.25-.56-1.25-1.25Zm6.915 0c0-.69.56-1.25 1.25-1.25h.098a1.25 1.25 0 0 1 0 2.5h-.098c-.69 0-1.25-.56-1.25-1.25Zm6.916 0c0-.69.56-1.25 1.25-1.25h.098a1.25 1.25 0 0 1 0 2.5h-.098c-.69 0-1.25-.56-1.25-1.25Zm6.916 0c0-.69.56-1.25 1.25-1.25h.097a1.25 1.25 0 1 1 0 2.5h-.097c-.69 0-1.25-.56-1.25-1.25Zm6.916 0c0-.69.559-1.25 1.25-1.25h.097a1.25 1.25 0 0 1 0 2.5h-.097a1.25 1.25 0 0 1-1.25-1.25Zm6.915 0c0-.69.56-1.25 1.25-1.25h.098a1.25 1.25 0 0 1 0 2.5h-.098c-.69 0-1.25-.56-1.25-1.25Zm6.916 0c0-.69.56-1.25 1.25-1.25h.097a1.25 1.25 0 1 1 0 2.5h-.097c-.69 0-1.25-.56-1.25-1.25Zm6.916 0c0-.69.559-1.25 1.25-1.25h.097a1.25 1.25 0 0 1 0 2.5h-.097a1.25 1.25 0 0 1-1.25-1.25Zm6.915 0c0-.69.56-1.25 1.25-1.25h.098a1.25 1.25 0 0 1 0 2.5h-.098c-.69 0-1.25-.56-1.25-1.25Zm6.916 0c0-.69.56-1.25 1.25-1.25h.098a1.25 1.25 0 1 1 .007 2.5H143.759c-.69 0-1.25-.56-1.25-1.25Z"
    style="fill: rgb(96, 96, 96);" />
  <path fill-rule="evenodd" clip-rule="evenodd"
    d="M181.808 184.045h-.05a1.25 1.25 0 0 0-.006 2.5h.099a1.25 1.25 0 1 0 0-2.5h-.043Zm4.809 1.25c0 .691.56 1.25 1.25 1.25h.086a1.25 1.25 0 1 0 0-2.5h-.086c-.69 0-1.25.56-1.25 1.25Zm6.102 0c0 .691.56 1.25 1.25 1.25h.086a1.25 1.25 0 1 0 0-2.5h-.086c-.69 0-1.25.56-1.25 1.25Zm6.103 0c0 .691.559 1.25 1.25 1.25h.043v-2.5h-.043c-.691 0-1.25.56-1.25 1.25Zm-23.083-.946a1.25 1.25 0 0 0-.68-1.631l-.091-.038a1.25 1.25 0 1 0-.964 2.307l.104.043a1.25 1.25 0 0 0 1.631-.681Zm-6.443-3.7a1.25 1.25 0 0 0-.005-1.768l-.069-.069a1.25 1.25 0 1 0-1.773 1.763l.079.079a1.25 1.25 0 0 0 1.768-.005Zm-4.544-5.879a1.25 1.25 0 0 0 .671-1.635l-.038-.091a1.25 1.25 0 1 0-2.312.951l.043.104c.267.637.999.937 1.636.671Zm-1.941-7.172a1.25 1.25 0 0 0 1.247-1.253v-.099a1.25 1.25 0 0 0-2.5 0V166.352a1.25 1.25 0 0 0 1.253 1.246Zm-.003-6.947c.69 0 1.25-.559 1.25-1.25v-.098a1.25 1.25 0 0 0-2.5 0v.098c0 .691.559 1.25 1.25 1.25Zm0-6.943c.69 0 1.25-.559 1.25-1.25V152.353a1.25 1.25 0 0 0-2.5.007v.098c0 .691.559 1.25 1.25 1.25Zm-.946-7.367a1.25 1.25 0 0 0 .68-1.632l-.043-.103a1.249 1.249 0 1 0-2.306.964l.037.091a1.25 1.25 0 0 0 1.632.68Zm-3.701-6.443a1.25 1.25 0 0 0 .005-1.768l-.079-.079a1.25 1.25 0 1 0-1.763 1.773l.07.069a1.25 1.25 0 0 0 1.767.005Zm-5.879-4.545a1.249 1.249 0 0 0-.671-1.635l-.103-.043a1.25 1.25 0 1 0-.951 2.312l.09.038a1.25 1.25 0 0 0 1.635-.672Zm-91.402-3.194h-.049v2.5h.049a1.25 1.25 0 1 0 0-2.5Zm5.567 1.25c0 .691.56 1.25 1.25 1.25h.098a1.25 1.25 0 1 0 0-2.5h-.098c-.69 0-1.25.56-1.25 1.25Zm6.915 0c0 .691.56 1.25 1.25 1.25h.097a1.25 1.25 0 1 0 0-2.5h-.097c-.69 0-1.25.56-1.25 1.25Zm6.915 0c0 .691.56 1.25 1.25 1.25h.097a1.25 1.25 0 1 0 0-2.5h-.097c-.69 0-1.25.56-1.25 1.25Zm6.914 0c0 .691.56 1.25 1.25 1.25h.098a1.25 1.25 0 1 0 0-2.5h-.098c-.69 0-1.25.56-1.25 1.25Zm6.915 0c0 .691.56 1.25 1.25 1.25h.098a1.25 1.25 0 1 0 0-2.5h-.098c-.69 0-1.25.56-1.25 1.25Zm6.915 0c0 .691.559 1.25 1.25 1.25h.097a1.25 1.25 0 1 0 0-2.5h-.097c-.691 0-1.25.56-1.25 1.25Zm6.914 0c0 .691.56 1.25 1.25 1.25h.098a1.25 1.25 0 1 0 0-2.5h-.098c-.69 0-1.25.56-1.25 1.25Zm6.915 0c0 .691.56 1.25 1.25 1.25h.098a1.25 1.25 0 1 0 0-2.5h-.098c-.69 0-1.25.56-1.25 1.25Zm6.915 0c0 .691.56 1.25 1.25 1.25h.097a1.25 1.25 0 1 0 0-2.5h-.097c-.69 0-1.25.56-1.25 1.25Zm6.915 0c0 .691.559 1.25 1.25 1.25h.097a1.25 1.25 0 1 0 0-2.5h-.097c-.691 0-1.25.56-1.25 1.25Zm6.914 0c0 .691.56 1.25 1.25 1.25h.098a1.25 1.25 0 1 0 0-2.5h-.098c-.69 0-1.25.56-1.25 1.25Zm6.915 0c0 .691.56 1.25 1.25 1.25h.098a1.25 1.25 0 1 0 .007-2.5H143.759c-.69 0-1.25.56-1.25 1.25Z"
    style="fill: rgb(96, 96, 96);" />
  <circle cx="32.996" cy="133.265" r="30.497" fill="#F3F4F6" stroke="#0F766E" stroke-width="2" />
  <path fill-rule="evenodd" clip-rule="evenodd"
    d="M29.247 127.015a3.749 3.749 0 1 1 7.498 0 3.749 3.749 0 0 1-7.498 0Zm3.75-6.251a6.251 6.251 0 1 0 0 12.502 6.251 6.251 0 0 0 0-12.502Zm-5 15a6.252 6.252 0 0 0-6.251 6.251v2.5a1.25 1.25 0 1 0 2.501 0v-2.5a3.75 3.75 0 0 1 3.75-3.749h10a3.75 3.75 0 0 1 3.749 3.749v2.5a1.25 1.25 0 1 0 2.501 0v-2.5a6.25 6.25 0 0 0-6.25-6.251h-10ZM241.216 82.323c0-.69.56-1.25 1.25-1.25h.05a1.25 1.25 0 0 1 0 2.5h-.05c-.69 0-1.25-.56-1.25-1.25Zm6.994 0c0-.69.559-1.25 1.25-1.25h.099a1.25 1.25 0 0 1 0 2.5h-.099a1.25 1.25 0 0 1-1.25-1.25Zm7.043 0c0-.69.559-1.25 1.25-1.25h.099a1.25 1.25 0 0 1 0 2.5h-.099a1.25 1.25 0 0 1-1.25-1.25Zm7.043 0c0-.69.56-1.25 1.25-1.25h.113a1.25 1.25 0 1 1-.014 2.5h-.099c-.69 0-1.25-.56-1.25-1.25Zm7.52 2.042a1.25 1.25 0 0 1 1.768-.01l.089.09a1.25 1.25 0 0 1-1.778 1.758 22.59 22.59 0 0 0-.069-.07 1.25 1.25 0 0 1-.01-1.768Zm3.883 6.762a1.25 1.25 0 0 1 1.257 1.243v.112a1.25 1.25 0 1 1-2.5.014v-.113a1.25 1.25 0 0 1 1.243-1.256Zm2.049 7.526a1.25 1.25 0 0 1 1.768.01l.07.07a1.25 1.25 0 0 1-1.758 1.777l-.089-.089a1.25 1.25 0 0 1 .009-1.768Zm6.762 3.883a1.249 1.249 0 0 1 1.256-1.243h.1a1.25 1.25 0 0 1 0 2.5h-.113a1.25 1.25 0 0 1-1.243-1.257Zm7.071.007c0-.69.56-1.25 1.25-1.25h.1a1.25 1.25 0 0 1 0 2.5h-.1c-.69 0-1.25-.56-1.25-1.25Zm7.065 0c0-.69.56-1.25 1.25-1.25h.1a1.25 1.25 0 0 1 0 2.5h-.1c-.69 0-1.25-.56-1.25-1.25Zm7.065 0c0-.69.56-1.25 1.25-1.25h.099a1.25 1.25 0 1 1 0 2.5h-.099c-.69 0-1.25-.56-1.25-1.25Zm7.065 0c0-.69.56-1.25 1.25-1.25h.099a1.25 1.25 0 1 1 0 2.5h-.099c-.69 0-1.25-.56-1.25-1.25Zm7.065 0c0-.69.56-1.25 1.25-1.25h.099a1.25 1.25 0 1 1 0 2.5h-.099c-.69 0-1.25-.56-1.25-1.25Zm7.065 0c0-.69.559-1.25 1.25-1.25h.099a1.25 1.25 0 1 1 0 2.5h-.099a1.25 1.25 0 0 1-1.25-1.25Zm7.065 0c0-.69.559-1.25 1.25-1.25h.099a1.25 1.25 0 1 1 0 2.5h-.099a1.25 1.25 0 0 1-1.25-1.25Zm7.065 0c0-.69.559-1.25 1.25-1.25h.099a1.25 1.25 0 1 1 0 2.5h-.099a1.25 1.25 0 0 1-1.25-1.25Zm7.065 0c0-.69.559-1.25 1.25-1.25h.099a1.25 1.25 0 1 1 0 2.5h-.099a1.25 1.25 0 0 1-1.25-1.25Zm7.065 0c0-.69.559-1.25 1.25-1.25h.099a1.25 1.25 0 1 1 0 2.5h-.099a1.25 1.25 0 0 1-1.25-1.25Zm7.065 0c0-.69.559-1.25 1.25-1.25h.099a1.25 1.25 0 0 1 0 2.5h-.099a1.25 1.25 0 0 1-1.25-1.25Zm7.065 0c0-.69.559-1.25 1.25-1.25h.099a1.25 1.25 0 0 1 0 2.5h-.099a1.25 1.25 0 0 1-1.25-1.25Zm7.065 0c0-.69.559-1.25 1.25-1.25h.099a1.25 1.25 0 0 1 0 2.5h-.099a1.25 1.25 0 0 1-1.25-1.25Zm7.064 0c0-.69.56-1.25 1.25-1.25h.1a1.25 1.25 0 0 1 0 2.5h-.1c-.69 0-1.25-.56-1.25-1.25Zm7.065 0c0-.69.56-1.25 1.25-1.25h.1a1.25 1.25 0 0 1 0 2.5h-.1c-.69 0-1.25-.56-1.25-1.25Zm7.065 0c0-.69.56-1.25 1.25-1.25h.1a1.25 1.25 0 0 1 0 2.5h-.1c-.69 0-1.25-.56-1.25-1.25Zm7.065 0c0-.69.56-1.25 1.25-1.25h.1a1.25 1.25 0 0 1 0 2.5h-.1c-.69 0-1.25-.56-1.25-1.25Zm7.065 0c0-.69.56-1.25 1.25-1.25h.1a1.25 1.25 0 0 1 0 2.5h-.1c-.69 0-1.25-.56-1.25-1.25Zm7.065 0c0-.69.56-1.25 1.25-1.25h.1a1.25 1.25 0 0 1 0 2.5h-.1c-.69 0-1.25-.56-1.25-1.25Zm7.065 0c0-.69.56-1.25 1.25-1.25h.1a1.25 1.25 0 0 1 0 2.5h-.1c-.69 0-1.25-.56-1.25-1.25Zm7.065 0c0-.69.56-1.25 1.25-1.25h.1a1.25 1.25 0 0 1 0 2.5h-.1c-.69 0-1.25-.56-1.25-1.25Zm7.065 0c0-.69.56-1.25 1.25-1.25h.1a1.25 1.25 0 0 1 0 2.5h-.1c-.69 0-1.25-.56-1.25-1.25Zm7.065 0c0-.69.56-1.25 1.25-1.25h.1a1.25 1.25 0 0 1 0 2.5h-.1c-.69 0-1.25-.56-1.25-1.25Zm7.065 0c0-.69.56-1.25 1.25-1.25h.1a1.25 1.25 0 0 1 0 2.5h-.1c-.69 0-1.25-.56-1.25-1.25Zm7.065 0c0-.69.56-1.25 1.25-1.25h.1a1.251 1.251 0 0 1-.001 2.5h-.099c-.69 0-1.25-.56-1.25-1.25Zm7.065 0c0-.69.56-1.25 1.25-1.25h.099a1.25 1.25 0 1 1 0 2.5h-.099c-.69 0-1.25-.56-1.25-1.25Zm7.065 0c0-.69.56-1.25 1.25-1.25h.099a1.25 1.25 0 1 1 0 2.5h-.099c-.69 0-1.25-.56-1.25-1.25Zm7.065 0c0-.69.56-1.25 1.25-1.25h.099a1.25 1.25 0 1 1 0 2.5h-.099c-.69 0-1.25-.56-1.25-1.25Zm7.065 0c0-.69.559-1.25 1.25-1.25h.099a1.25 1.25 0 1 1 0 2.5h-.099a1.25 1.25 0 0 1-1.25-1.25Zm7.065 0c0-.69.559-1.25 1.25-1.25h.099a1.25 1.25 0 1 1 0 2.5h-.099a1.25 1.25 0 0 1-1.25-1.25Zm7.065 0c0-.69.559-1.25 1.25-1.25h.099a1.25 1.25 0 1 1 0 2.5h-.099a1.25 1.25 0 0 1-1.25-1.25Zm7.065 0c0-.69.559-1.25 1.25-1.25h.099a1.25 1.25 0 1 1 0 2.5h-.099a1.25 1.25 0 0 1-1.25-1.25Zm7.065 0c0-.69.559-1.25 1.25-1.25h.099a1.25 1.25 0 1 1 0 2.5h-.099a1.25 1.25 0 0 1-1.25-1.25Zm7.065 0c0-.69.559-1.25 1.25-1.25h.099a1.25 1.25 0 0 1 0 2.5h-.099a1.25 1.25 0 0 1-1.25-1.25Zm7.065 0c0-.69.559-1.25 1.25-1.25h.099a1.25 1.25 0 0 1 0 2.5h-.099a1.25 1.25 0 0 1-1.25-1.25Zm7.065 0c0-.69.559-1.25 1.25-1.25h.099a1.25 1.25 0 0 1 0 2.5h-.099a1.25 1.25 0 0 1-1.25-1.25Zm7.064 0c0-.69.56-1.25 1.25-1.25h.1a1.25 1.25 0 0 1 0 2.5h-.1c-.69 0-1.25-.56-1.25-1.25Zm7.065 0c0-.69.56-1.25 1.25-1.25h.1a1.25 1.25 0 0 1 0 2.5h-.1c-.69 0-1.25-.56-1.25-1.25Zm7.065 0c0-.69.56-1.25 1.25-1.25h.1a1.25 1.25 0 0 1 0 2.5h-.1c-.69 0-1.25-.56-1.25-1.25Zm7.065 0c0-.69.56-1.25 1.25-1.25h.1a1.25 1.25 0 0 1 0 2.5h-.1c-.69 0-1.25-.56-1.25-1.25Zm7.065 0c0-.69.56-1.25 1.25-1.25h.1a1.25 1.25 0 0 1 0 2.5h-.1c-.69 0-1.25-.56-1.25-1.25Zm7.065 0c0-.69.56-1.25 1.25-1.25h.1a1.25 1.25 0 0 1 0 2.5h-.1c-.69 0-1.25-.56-1.25-1.25Zm7.065 0c0-.69.56-1.25 1.25-1.25h.1a1.25 1.25 0 0 1 0 2.5h-.1c-.69 0-1.25-.56-1.25-1.25Zm7.065 0c0-.69.56-1.25 1.25-1.25h.1a1.25 1.25 0 0 1 0 2.5h-.1c-.69 0-1.25-.56-1.25-1.25Zm7.065 0c0-.69.56-1.25 1.25-1.25h.1a1.25 1.25 0 0 1 0 2.5h-.1c-.69 0-1.25-.56-1.25-1.25Zm7.065 0c0-.69.56-1.25 1.25-1.25h.1a1.25 1.25 0 0 1 0 2.5h-.1c-.69 0-1.25-.56-1.25-1.25Zm7.065 0c0-.69.56-1.25 1.25-1.25h.1a1.25 1.25 0 0 1 0 2.5h-.1c-.69 0-1.25-.56-1.25-1.25Zm7.065 0c0-.69.56-1.25 1.25-1.25h.1a1.25 1.25 0 0 1 0 2.5h-.1c-.69 0-1.25-.56-1.25-1.25Zm7.065 0c0-.69.56-1.25 1.25-1.25h.1a1.25 1.25 0 0 1 0 2.5h-.1c-.69 0-1.25-.56-1.25-1.25Zm7.065 0c0-.69.56-1.25 1.25-1.25h.1a1.25 1.25 0 0 1 0 2.5h-.1c-.69 0-1.25-.56-1.25-1.25Zm7.065 0c0-.69.56-1.25 1.25-1.25h.1a1.25 1.25 0 0 1 0 2.5h-.1c-.69 0-1.25-.56-1.25-1.25Zm7.065 0c0-.69.56-1.25 1.25-1.25h.1a1.25 1.25 0 0 1 0 2.5h-.1c-.69 0-1.25-.56-1.25-1.25Zm7.065 0c0-.69.56-1.25 1.25-1.25h.1a1.25 1.25 0 0 1 0 2.5h-.1c-.69 0-1.25-.56-1.25-1.25Zm7.065 0c0-.69.56-1.25 1.25-1.25h.1a1.25 1.25 0 0 1 0 2.5h-.1c-.69 0-1.25-.56-1.25-1.25Zm7.065 0c0-.69.56-1.25 1.25-1.25h.1a1.249 1.249 0 1 1 0 2.5h-.1c-.69 0-1.25-.56-1.25-1.25Zm7.065 0c0-.69.56-1.25 1.25-1.25h.049v2.5h-.049c-.69 0-1.25-.56-1.25-1.25Z"
    fill="#000" />
  <path
    d="m78.92 105.238-5.31 13.446h1.297l5.328-13.446H78.92Zm10.17 12.366v-8.514h-1.44v1.332h-.017a2.67 2.67 0 0 0-1.152-1.152 3.372 3.372 0 0 0-1.62-.396c-.804 0-1.482.156-2.034.468-.552.3-.996.69-1.332 1.17a4.538 4.538 0 0 0-.72 1.584 6.961 6.961 0 0 0-.216 1.692c0 .636.084 1.242.252 1.818.18.564.444 1.062.792 1.494.348.42.78.756 1.296 1.008s1.122.378 1.818.378c.6 0 1.164-.132 1.692-.396.54-.276.942-.702 1.206-1.278h.036v.612c0 .516-.054.99-.162 1.422a2.788 2.788 0 0 1-.486 1.098 2.284 2.284 0 0 1-.864.72c-.348.18-.774.27-1.278.27a3.73 3.73 0 0 1-.792-.09 2.789 2.789 0 0 1-.774-.252 2.052 2.052 0 0 1-.594-.468 1.161 1.161 0 0 1-.252-.702h-1.53c.024.504.156.93.396 1.278.24.348.54.63.9.846.372.216.78.372 1.224.468.456.096.9.144 1.332.144 1.488 0 2.58-.378 3.276-1.134.696-.756 1.044-1.896 1.044-3.42Zm-4.283-.45c-.504 0-.924-.102-1.26-.306a2.542 2.542 0 0 1-.81-.828 3.69 3.69 0 0 1-.432-1.152 6.41 6.41 0 0 1-.126-1.26c0-.444.048-.87.144-1.278.108-.408.27-.768.486-1.08.228-.312.516-.558.864-.738.348-.192.768-.288 1.26-.288.48 0 .888.096 1.224.288.336.192.606.45.81.774.216.312.372.666.468 1.062a5.1 5.1 0 0 1 .144 1.206c0 .432-.054.864-.162 1.296a3.737 3.737 0 0 1-.468 1.17 2.597 2.597 0 0 1-.864.828c-.348.204-.774.306-1.278.306Zm6.538-8.064v9.306h1.53v-4.14c0-.6.06-1.128.18-1.584.12-.468.312-.864.576-1.188.264-.324.612-.57 1.044-.738.432-.168.954-.252 1.566-.252v-1.62c-.828-.024-1.512.144-2.052.504s-.996.918-1.368 1.674h-.036v-1.962h-1.44Zm14.292 9.27c-.264.156-.63.234-1.098.234-.396 0-.714-.108-.954-.324-.228-.228-.342-.594-.342-1.098-.42.504-.912.87-1.476 1.098a4.897 4.897 0 0 1-1.8.324c-.42 0-.822-.048-1.206-.144a2.788 2.788 0 0 1-.972-.45 2.262 2.262 0 0 1-.666-.792c-.156-.336-.234-.738-.234-1.206 0-.528.09-.96.27-1.296a2.31 2.31 0 0 1 .702-.81 3.27 3.27 0 0 1 1.008-.486c.384-.108.774-.198 1.17-.27.42-.084.816-.144 1.188-.18.384-.048.72-.108 1.008-.18.288-.084.516-.198.684-.342.168-.156.252-.378.252-.666 0-.336-.066-.606-.198-.81a1.215 1.215 0 0 0-.486-.468 1.892 1.892 0 0 0-.666-.216 4.847 4.847 0 0 0-.72-.054c-.648 0-1.188.126-1.62.378-.432.24-.666.702-.702 1.386h-1.53c.024-.576.144-1.062.36-1.458a2.65 2.65 0 0 1 .864-.954 3.53 3.53 0 0 1 1.224-.54 6.633 6.633 0 0 1 1.494-.162c.42 0 .834.03 1.242.09.42.06.798.186 1.134.378.336.18.606.438.81.774.204.336.306.774.306 1.314v4.788c0 .36.018.624.054.792.048.168.192.252.432.252.132 0 .288-.03.468-.09v1.188Zm-2.484-4.77c-.192.144-.444.252-.756.324-.312.06-.642.114-.99.162-.336.036-.678.084-1.026.144-.348.048-.66.132-.936.252a1.74 1.74 0 0 0-.684.522c-.168.216-.252.516-.252.9 0 .252.048.468.144.648.108.168.24.306.396.414.168.108.36.186.576.234.216.048.444.072.684.072.504 0 .936-.066 1.296-.198.36-.144.654-.318.882-.522.228-.216.396-.444.504-.684.108-.252.162-.486.162-.702v-1.566Zm3.962-4.5v12.852h1.53v-4.788h.036c.168.276.372.51.612.702.252.18.516.324.792.432.276.108.552.186.828.234.288.048.546.072.774.072.708 0 1.326-.126 1.854-.378.54-.252.984-.594 1.332-1.026.36-.444.624-.96.792-1.548.18-.588.27-1.212.27-1.872 0-.66-.09-1.284-.27-1.872a4.538 4.538 0 0 0-.81-1.548 3.68 3.68 0 0 0-1.332-1.08c-.528-.264-1.152-.396-1.872-.396-.648 0-1.242.12-1.782.36-.54.228-.936.6-1.188 1.116h-.036v-1.26h-1.53Zm7.2 4.572c0 .456-.048.9-.144 1.332a3.524 3.524 0 0 1-.468 1.152 2.437 2.437 0 0 1-.864.81c-.348.204-.786.306-1.314.306s-.978-.096-1.35-.288a2.8 2.8 0 0 1-.918-.792 3.383 3.383 0 0 1-.504-1.116 5.471 5.471 0 0 1-.162-1.332c0-.432.048-.858.144-1.278.108-.42.276-.792.504-1.116.228-.336.522-.606.882-.81.36-.204.798-.306 1.314-.306.492 0 .918.096 1.278.288.372.192.672.45.9.774.24.324.414.696.522 1.116.12.408.18.828.18 1.26Zm3.416-8.118v12.852h1.53v-5.256c0-.42.054-.804.162-1.152.12-.36.294-.672.522-.936.228-.264.51-.468.846-.612.348-.144.756-.216 1.224-.216.588 0 1.05.168 1.386.504.336.336.504.792.504 1.368v6.3h1.53v-6.12c0-.504-.054-.96-.162-1.368-.096-.42-.27-.78-.522-1.08a2.515 2.515 0 0 0-.99-.702c-.408-.168-.918-.252-1.53-.252-.276 0-.564.03-.864.09a3.71 3.71 0 0 0-.846.288c-.264.12-.504.282-.72.486a1.95 1.95 0 0 0-.504.72h-.036v-4.914h-1.53Zm11.118 8.28c0-.456.048-.9.144-1.332.096-.432.252-.816.468-1.152.216-.336.504-.606.864-.81.36-.204.798-.306 1.314-.306.528 0 .978.102 1.35.306.372.192.672.45.9.774.24.324.414.702.522 1.134a5.256 5.256 0 0 1 0 2.592c-.096.42-.258.798-.486 1.134a2.672 2.672 0 0 1-.882.792c-.36.204-.798.306-1.314.306-.492 0-.924-.096-1.296-.288-.36-.192-.66-.45-.9-.774a3.712 3.712 0 0 1-.522-1.098 5.112 5.112 0 0 1-.162-1.278Zm7.2 8.118V109.09h-1.53v1.242h-.036a2.296 2.296 0 0 0-.63-.684 2.962 2.962 0 0 0-.774-.45 3.637 3.637 0 0 0-.828-.252 4.532 4.532 0 0 0-.774-.072c-.708 0-1.332.132-1.872.396-.528.252-.972.6-1.332 1.044a4.517 4.517 0 0 0-.792 1.53 6.784 6.784 0 0 0-.252 1.872c0 .66.09 1.284.27 1.872.18.588.444 1.104.792 1.548.36.444.804.798 1.332 1.062.54.264 1.17.396 1.89.396.648 0 1.242-.114 1.782-.342.54-.228.936-.6 1.188-1.116h.036v4.806h1.53Zm2.444-16.398v12.852h1.53v-12.852h-1.53Z"
    style="fill: rgb(96, 96, 96);" />
  <path fill-rule="evenodd" clip-rule="evenodd"
    d="M242.516 186.6h-.05v-2.5h.05a1.25 1.25 0 1 1 0 2.5Zm5.698-1.25c0-.691.56-1.25 1.25-1.25h.1a1.25 1.25 0 1 1 0 2.5h-.1c-.69 0-1.25-.56-1.25-1.25Zm7.048 0c0-.691.56-1.25 1.25-1.25h.099a1.25 1.25 0 1 1 0 2.5h-.099c-.69 0-1.25-.56-1.25-1.25Zm7.048 0c0-.691.56-1.25 1.25-1.25h.099a1.25 1.25 0 1 1 0 2.5h-.099c-.69 0-1.25-.56-1.25-1.25Zm7.048 0c0-.691.559-1.25 1.25-1.25h.099a1.25 1.25 0 1 1 0 2.5h-.099a1.25 1.25 0 0 1-1.25-1.25Zm7.048 0c0-.691.559-1.25 1.25-1.25h.099a1.25 1.25 0 1 1 0 2.5h-.099a1.25 1.25 0 0 1-1.25-1.25Zm7.047 0c0-.691.56-1.25 1.25-1.25h.1a1.25 1.25 0 1 1 0 2.5h-.1c-.69 0-1.25-.56-1.25-1.25Zm7.048 0c0-.691.56-1.25 1.25-1.25h.1a1.25 1.25 0 1 1 0 2.5h-.1c-.69 0-1.25-.56-1.25-1.25Zm7.048 0c0-.691.56-1.25 1.25-1.25h.099a1.25 1.25 0 1 1 0 2.5h-.099c-.69 0-1.25-.56-1.25-1.25Zm7.048 0c0-.691.56-1.25 1.25-1.25h.099a1.25 1.25 0 1 1 0 2.5h-.099c-.69 0-1.25-.56-1.25-1.25Zm7.048 0c0-.691.559-1.25 1.25-1.25h.099a1.25 1.25 0 1 1 0 2.5h-.099a1.25 1.25 0 0 1-1.25-1.25Zm7.048 0c0-.691.559-1.25 1.25-1.25h.099a1.25 1.25 0 1 1 0 2.5h-.099a1.25 1.25 0 0 1-1.25-1.25Zm7.047 0c0-.691.56-1.25 1.25-1.25h.1a1.25 1.25 0 1 1 0 2.5h-.1c-.69 0-1.25-.56-1.25-1.25Zm7.048 0c0-.691.56-1.25 1.25-1.25h.099a1.25 1.25 0 1 1 0 2.5h-.099c-.69 0-1.25-.56-1.25-1.25Zm7.048 0c0-.691.56-1.25 1.25-1.25h.099a1.25 1.25 0 1 1 0 2.5h-.099c-.69 0-1.25-.56-1.25-1.25Zm7.048 0c0-.691.56-1.25 1.25-1.25h.099a1.25 1.25 0 1 1 0 2.5h-.099c-.69 0-1.25-.56-1.25-1.25Zm7.048 0c0-.691.559-1.25 1.25-1.25h.099a1.25 1.25 0 1 1 0 2.5h-.099a1.25 1.25 0 0 1-1.25-1.25Zm7.048 0c0-.691.559-1.25 1.25-1.25h.099a1.25 1.25 0 1 1 0 2.5h-.099a1.25 1.25 0 0 1-1.25-1.25Zm7.047 0c0-.691.56-1.25 1.25-1.25h.1a1.25 1.25 0 1 1 0 2.5h-.1c-.69 0-1.25-.56-1.25-1.25Zm7.048 0c0-.691.56-1.25 1.25-1.25h.099a1.25 1.25 0 1 1 0 2.5h-.099c-.69 0-1.25-.56-1.25-1.25Zm7.048 0c0-.691.56-1.25 1.25-1.25h.099a1.25 1.25 0 1 1 0 2.5h-.099c-.69 0-1.25-.56-1.25-1.25Zm7.048 0c0-.691.559-1.25 1.25-1.25h.099a1.25 1.25 0 1 1 0 2.5h-.099a1.25 1.25 0 0 1-1.25-1.25Zm7.048 0c0-.691.559-1.25 1.25-1.25h.099a1.25 1.25 0 1 1 0 2.5h-.099a1.25 1.25 0 0 1-1.25-1.25Zm7.047 0c0-.691.56-1.25 1.25-1.25h.1a1.25 1.25 0 1 1 0 2.5h-.1c-.69 0-1.25-.56-1.25-1.25Zm7.048 0c0-.691.56-1.25 1.25-1.25h.1a1.25 1.25 0 1 1 0 2.5h-.1c-.69 0-1.25-.56-1.25-1.25Zm7.048 0c0-.691.56-1.25 1.25-1.25h.099a1.25 1.25 0 1 1 0 2.5h-.099c-.69 0-1.25-.56-1.25-1.25Zm7.048 0c0-.691.56-1.25 1.25-1.25h.099a1.25 1.25 0 1 1 0 2.5h-.099c-.69 0-1.25-.56-1.25-1.25Zm7.048 0c0-.691.559-1.25 1.25-1.25h.099a1.25 1.25 0 1 1 0 2.5h-.099a1.25 1.25 0 0 1-1.25-1.25Zm7.048 0c0-.691.559-1.25 1.25-1.25h.099a1.25 1.25 0 1 1 0 2.5h-.099a1.25 1.25 0 0 1-1.25-1.25Zm7.047 0c0-.691.56-1.25 1.25-1.25h.1a1.25 1.25 0 1 1 0 2.5h-.1c-.69 0-1.25-.56-1.25-1.25Zm7.048 0c0-.691.56-1.25 1.25-1.25h.099a1.25 1.25 0 1 1 0 2.5h-.099c-.69 0-1.25-.56-1.25-1.25Zm7.048 0c0-.691.56-1.25 1.25-1.25h.099a1.25 1.25 0 1 1 0 2.5h-.099c-.69 0-1.25-.56-1.25-1.25Zm7.048 0c0-.691.56-1.25 1.25-1.25h.099a1.25 1.25 0 1 1 0 2.5h-.099c-.69 0-1.25-.56-1.25-1.25Zm7.048 0c0-.691.559-1.25 1.25-1.25h.099a1.25 1.25 0 1 1 0 2.5h-.099a1.25 1.25 0 0 1-1.25-1.25Zm7.047 0c0-.691.56-1.25 1.25-1.25h.1a1.25 1.25 0 1 1 0 2.5h-.1c-.69 0-1.25-.56-1.25-1.25Zm7.048 0c0-.691.56-1.25 1.25-1.25h.1a1.25 1.25 0 1 1 0 2.5h-.1c-.69 0-1.25-.56-1.25-1.25Zm7.048 0c0-.691.56-1.25 1.25-1.25h.099a1.25 1.25 0 1 1 0 2.5h-.099c-.69 0-1.25-.56-1.25-1.25Zm7.048 0c0-.691.56-1.25 1.25-1.25h.099a1.25 1.25 0 1 1 0 2.5h-.099c-.69 0-1.25-.56-1.25-1.25Zm7.048 0c0-.691.559-1.25 1.25-1.25h.099a1.25 1.25 0 1 1 0 2.5h-.099a1.25 1.25 0 0 1-1.25-1.25Zm7.048 0c0-.691.559-1.25 1.25-1.25h.099a1.25 1.25 0 1 1 0 2.5h-.099a1.25 1.25 0 0 1-1.25-1.25Zm7.048 0c0-.691.559-1.25 1.25-1.25h.099a1.25 1.25 0 1 1 0 2.5h-.099a1.25 1.25 0 0 1-1.25-1.25Zm7.047 0c0-.691.56-1.25 1.25-1.25h.1a1.25 1.25 0 1 1 0 2.5h-.1c-.69 0-1.25-.56-1.25-1.25Zm7.048 0c0-.691.56-1.25 1.25-1.25h.1a1.25 1.25 0 1 1 0 2.5h-.1c-.69 0-1.25-.56-1.25-1.25Zm7.048 0c0-.691.56-1.25 1.25-1.25h.099a1.25 1.25 0 1 1 0 2.5h-.099c-.69 0-1.25-.56-1.25-1.25Zm7.048 0c0-.691.56-1.25 1.25-1.25h.099a1.25 1.25 0 1 1 0 2.5h-.099c-.69 0-1.25-.56-1.25-1.25Zm7.048 0c0-.691.559-1.25 1.25-1.25h.099a1.25 1.25 0 1 1 0 2.5h-.099a1.25 1.25 0 0 1-1.25-1.25Zm7.048 0c0-.691.559-1.25 1.25-1.25h.099a1.25 1.25 0 1 1 0 2.5h-.099a1.25 1.25 0 0 1-1.25-1.25Zm7.047 0c0-.691.56-1.25 1.25-1.25h.1a1.25 1.25 0 1 1 0 2.5h-.1c-.69 0-1.25-.56-1.25-1.25Zm7.048 0c0-.691.56-1.25 1.25-1.25h.1a1.25 1.25 0 1 1 0 2.5h-.1c-.69 0-1.25-.56-1.25-1.25Zm7.048 0c0-.691.56-1.25 1.25-1.25h.099a1.25 1.25 0 1 1 0 2.5h-.099c-.69 0-1.25-.56-1.25-1.25Zm7.048 0c0-.691.56-1.25 1.25-1.25h.099a1.25 1.25 0 1 1 0 2.5h-.099c-.69 0-1.25-.56-1.25-1.25Zm7.048 0c0-.691.56-1.25 1.25-1.25h.099a1.25 1.25 0 1 1 0 2.5h-.099c-.69 0-1.25-.56-1.25-1.25Zm7.048 0c0-.691.559-1.25 1.25-1.25h.099a1.25 1.25 0 1 1 0 2.5h-.099a1.25 1.25 0 0 1-1.25-1.25Zm7.048 0c0-.691.559-1.25 1.25-1.25h.099a1.25 1.25 0 1 1 0 2.5h-.099a1.25 1.25 0 0 1-1.25-1.25Zm7.047 0c0-.691.56-1.25 1.25-1.25h.1a1.25 1.25 0 1 1 0 2.5h-.1c-.69 0-1.25-.56-1.25-1.25Zm7.048 0c0-.691.56-1.25 1.25-1.25h.1a1.25 1.25 0 1 1 0 2.5h-.1c-.69 0-1.25-.56-1.25-1.25Zm7.048 0c0-.691.56-1.25 1.25-1.25h.099a1.25 1.25 0 1 1 0 2.5h-.099c-.69 0-1.25-.56-1.25-1.25Zm7.048 0c0-.691.56-1.25 1.25-1.25h.099a1.25 1.25 0 1 1 0 2.5h-.099c-.69 0-1.25-.56-1.25-1.25Zm7.048 0c0-.691.56-1.25 1.25-1.25h.099a1.25 1.25 0 1 1 0 2.5h-.099c-.69 0-1.25-.56-1.25-1.25Zm7.048 0c0-.691.559-1.25 1.25-1.25h.099a1.25 1.25 0 1 1 0 2.5h-.099a1.25 1.25 0 0 1-1.25-1.25Zm7.048 0c0-.691.559-1.25 1.25-1.25h.099a1.25 1.25 0 1 1 0 2.5h-.099a1.25 1.25 0 0 1-1.25-1.25Zm7.047 0c0-.691.56-1.25 1.25-1.25h.1a1.25 1.25 0 1 1 0 2.5h-.1c-.69 0-1.25-.56-1.25-1.25Zm7.048 0c0-.691.56-1.25 1.25-1.25h.049v2.5h-.049c-.69 0-1.25-.56-1.25-1.25Z"
    fill="#000" />
  <circle cx="802.838" cy="185.35" r="30.497" fill="#F3F4F6" stroke="#0F766E" stroke-width="2" />
  <path fill-rule="evenodd" clip-rule="evenodd"
    d="M791.597 175.35c0-.686.555-1.242 1.241-1.242h20c.685 0 1.241.556 1.241 1.242v5c0 .685-.556 1.241-1.241 1.241h-20a1.24 1.24 0 0 1-1.241-1.241v-5Zm1.241-3.759a3.759 3.759 0 0 0-3.759 3.759v5a3.759 3.759 0 0 0 3.759 3.758h20a3.759 3.759 0 0 0 3.759-3.758v-5a3.759 3.759 0 0 0-3.759-3.759h-20Zm-1.241 18.759c0-.686.555-1.242 1.241-1.242h20c.685 0 1.241.556 1.241 1.242v5c0 .685-.556 1.241-1.241 1.241h-20a1.24 1.24 0 0 1-1.241-1.241v-5Zm1.241-3.759a3.759 3.759 0 0 0-3.759 3.759v5a3.759 3.759 0 0 0 3.759 3.758h20a3.759 3.759 0 0 0 3.759-3.758v-5a3.759 3.759 0 0 0-3.759-3.759h-20Zm1.241-8.741c0-.696.564-1.259 1.259-1.259h.012a1.259 1.259 0 1 1 0 2.517h-.012a1.259 1.259 0 0 1-1.259-1.258Zm1.259 13.741a1.259 1.259 0 1 0 0 2.517h.012a1.259 1.259 0 1 0 0-2.517h-.012Z"
    fill="#000" />
  <circle cx="302.343" cy="102.308" r="6" fill="#0F766E" stroke="#0F766E" stroke-width="2" />
  <circle cx="302.343" cy="185.249" r="6" fill="#0F766E" stroke="#0F766E" stroke-width="2" />
  <circle cx="401.343" cy="102.308" r="6" fill="#0F766E" stroke="#0F766E" stroke-width="2" />
  <circle cx="401.343" cy="185.249" r="6" fill="#0F766E" stroke="#0F766E" stroke-width="2" />
  <circle cx="514.343" cy="102.308" r="6" fill="#0F766E" stroke="#0F766E" stroke-width="2" />
  <circle cx="514.343" cy="185.249" r="6" fill="#0F766E" stroke="#0F766E" stroke-width="2" />
  <circle cx="627.343" cy="102.308" r="6" fill="#0F766E" stroke="#0F766E" stroke-width="2" />
  <circle cx="627.343" cy="185.249" r="6" fill="#0F766E" stroke="#0F766E" stroke-width="2" />
  <circle cx="802.838" cy="78.324" r="30.497" fill="#F3F4F6" stroke="#0F766E" stroke-width="2" />
  <path fill-rule="evenodd" clip-rule="evenodd"
    d="M791.597 68.324a1.24 1.24 0 0 1 1.241-1.241h20c.685 0 1.241.555 1.241 1.24v5c0 .686-.556 1.242-1.241 1.242h-20a1.24 1.24 0 0 1-1.241-1.241v-5Zm1.241-3.759a3.759 3.759 0 0 0-3.759 3.759v5a3.759 3.759 0 0 0 3.759 3.759h20a3.759 3.759 0 0 0 3.759-3.76v-5a3.759 3.759 0 0 0-3.759-3.758h-20Zm-1.241 18.759a1.24 1.24 0 0 1 1.241-1.241h20c.685 0 1.241.555 1.241 1.24v5c0 .686-.556 1.242-1.241 1.242h-20a1.24 1.24 0 0 1-1.241-1.241v-5Zm1.241-3.759a3.759 3.759 0 0 0-3.759 3.759v5a3.759 3.759 0 0 0 3.759 3.759h20a3.759 3.759 0 0 0 3.759-3.76v-5a3.759 3.759 0 0 0-3.759-3.758h-20Zm1.241-8.741a1.26 1.26 0 0 1 1.259-1.259h.012a1.26 1.26 0 0 1 0 2.518h-.012a1.26 1.26 0 0 1-1.259-1.26Zm1.259 13.741a1.26 1.26 0 0 0 0 2.518h.012a1.26 1.26 0 0 0 0-2.518h-.012Z"
    fill="#000" />
  <path fill-rule="evenodd" clip-rule="evenodd"
    d="M 721.853 183.912 C 721.853 184.603 722.413 185.162 723.103 185.162 L 723.201 185.162 C 724.163 185.162 724.765 184.12 724.283 183.287 C 724.06 182.9 723.647 182.662 723.201 182.662 L 723.103 182.662 C 722.413 182.662 721.853 183.222 721.853 183.912 Z M 728.768 183.912 C 728.768 184.603 729.328 185.162 730.018 185.162 L 730.115 185.162 C 731.077 185.162 731.679 184.12 731.197 183.287 C 730.974 182.9 730.561 182.662 730.115 182.662 L 730.018 182.662 C 729.328 182.662 728.768 183.222 728.768 183.912 Z M 735.683 183.912 C 735.683 184.603 736.243 185.162 736.933 185.162 L 737.03 185.162 C 737.992 185.162 738.594 184.12 738.112 183.287 C 737.889 182.9 737.476 182.662 737.03 182.662 L 736.933 182.662 C 736.243 182.662 735.683 183.222 735.683 183.912 Z M 742.597 183.912 C 742.597 184.603 743.157 185.162 743.847 185.162 L 743.945 185.162 C 744.907 185.162 745.509 184.12 745.027 183.287 C 744.804 182.9 744.391 182.662 743.945 182.662 L 743.847 182.662 C 743.157 182.662 742.597 183.222 742.597 183.912 Z M 749.512 183.912 C 749.512 184.603 750.072 185.162 750.762 185.162 L 750.86 185.162 C 751.822 185.162 752.424 184.12 751.942 183.287 C 751.719 182.9 751.306 182.662 750.86 182.662 L 750.762 182.662 C 750.072 182.662 749.512 183.222 749.512 183.912 Z M 756.427 183.912 C 756.427 184.603 756.986 185.162 757.677 185.162 L 757.774 185.162 C 758.736 185.162 759.338 184.12 758.856 183.287 C 758.633 182.9 758.22 182.662 757.774 182.662 L 757.677 182.662 C 756.986 182.662 756.427 183.222 756.427 183.912 Z M 763.341 183.912 C 763.341 184.603 763.901 185.162 764.591 185.162 L 764.689 185.162 C 765.651 185.162 766.253 184.12 765.771 183.287 C 765.548 182.9 765.135 182.662 764.689 182.662 L 764.591 182.662 C 763.901 182.662 763.341 183.222 763.341 183.912 Z M 770.256 183.912 C 770.256 184.603 770.816 185.162 771.506 185.162 L 771.604 185.162 C 772.566 185.162 773.168 184.12 772.686 183.287 C 772.463 182.9 772.05 182.662 771.604 182.662 L 771.506 182.662 C 770.816 182.662 770.256 183.222 770.256 183.912 Z"
    style="fill: rgb(96, 96, 96);" />
</svg>